<svg width="24" height="24" viewBox="0 0 24 24" fill="none" xmlns="http://www.w3.org/2000/svg">
<path d="M11.9999 0C11.9999 0 21.5999 9.096 21.5999 14.4C21.5999 16.9461 20.5885 19.3879 18.7881 21.1882C16.9878 22.9886 14.546 24 11.9999 24C9.45382 24 7.01203 22.9886 5.21168 21.1882C3.41133 19.3879 2.3999 16.9461 2.3999 14.4C2.3999 12.6 3.4919 10.38 4.9439 8.22C5.18682 9.05292 5.72237 9.77009 6.45201 10.2395C7.18165 10.709 8.05628 10.8992 8.91498 10.775C9.77367 10.6509 10.5586 10.2208 11.1255 9.56396C11.6923 8.90709 12.0028 8.06761 11.9999 7.2V0ZM9.5999 0C8.64512 0 7.72945 0.379285 7.05432 1.05442C6.37919 1.72955 5.9999 2.64522 5.9999 3.6C5.9999 4.55478 6.37919 5.47045 7.05432 6.14558C7.72945 6.82072 8.64512 7.2 9.5999 7.2V0Z" fill="white"/>
</svg>
