<svg width="129" height="134" viewBox="0 0 129 134" fill="none" xmlns="http://www.w3.org/2000/svg">
<g clip-path="url(#clip0_14_78)">
<mask id="path-1-inside-1_14_78" fill="white">
<path d="M0 12C0 5.37258 5.37258 0 12 0H117C123.627 0 129 5.37258 129 12V67H0V12Z"/>
</mask>
<path d="M0 12C0 5.37258 5.37258 0 12 0H117C123.627 0 129 5.37258 129 12V67H0V12Z" fill="url(#paint0_linear_14_78)"/>
<path d="M-1 12C-1 4.8203 4.8203 -1 12 -1H117C124.18 -1 130 4.8203 130 12H128C128 5.92487 123.075 1 117 1H12C5.92487 1 1 5.92487 1 12H-1ZM129 67H0H129ZM-1 67V12C-1 4.8203 4.8203 -1 12 -1V1C5.92487 1 1 5.92487 1 12V67H-1ZM117 -1C124.18 -1 130 4.8203 130 12V67H128V12C128 5.92487 123.075 1 117 1V-1Z" fill="url(#paint1_linear_14_78)" mask="url(#path-1-inside-1_14_78)"/>
</g>
<g clip-path="url(#clip1_14_78)">
<path d="M128.5 67.5V122C128.5 128.351 123.351 133.5 117 133.5H12C5.64873 133.5 0.5 128.351 0.5 122V67.5H128.5Z" fill="url(#paint2_linear_14_78)" stroke="url(#paint3_linear_14_78)"/>
</g>
<defs>
<linearGradient id="paint0_linear_14_78" x1="64.5" y1="0" x2="64.5" y2="413" gradientUnits="userSpaceOnUse">
<stop stop-color="#1A1A1D"/>
<stop offset="1" stop-color="#F84397"/>
</linearGradient>
<linearGradient id="paint1_linear_14_78" x1="48.5" y1="-183" x2="50.5" y2="67" gradientUnits="userSpaceOnUse">
<stop stop-color="#F84397"/>
<stop offset="1" stop-color="#1C1C20"/>
</linearGradient>
<linearGradient id="paint2_linear_14_78" x1="64.5" y1="-279" x2="64.5" y2="159" gradientUnits="userSpaceOnUse">
<stop stop-color="#F84397"/>
<stop offset="1" stop-color="#1A1A1D"/>
</linearGradient>
<linearGradient id="paint3_linear_14_78" x1="47" y1="382.5" x2="53.5" y2="67" gradientUnits="userSpaceOnUse">
<stop stop-color="#F84397"/>
<stop offset="1" stop-color="#1C1C20"/>
</linearGradient>
<clipPath id="clip0_14_78">
<rect width="129" height="67" fill="white"/>
</clipPath>
<clipPath id="clip1_14_78">
<rect width="129" height="67" fill="white" transform="translate(0 67)"/>
</clipPath>
</defs>
</svg>
