<svg width="1440" height="512" viewBox="0 0 1440 512" fill="none" xmlns="http://www.w3.org/2000/svg">
<g clip-path="url(#clip0_46_192)">
<path d="M-25.5736 -38.577C-3.37686 73.6173 179.118 387.803 434.894 551.5C381.894 551.5 325.394 539.5 227.894 543C174.894 544.903 111.894 535 70.894 535C-51.8628 571.718 -29.9011 336.98 -43 346.21L-26.9903 -47L-25.5736 -38.577Z" fill="white" fill-opacity="0.1"/>
<path d="M-26.9903 -47C-12.9211 56.9946 172.394 383.5 434.894 551.5C381.894 551.5 325.394 539.5 227.894 543M-26.9903 -47L-43 346.21C-29.9011 336.98 -51.8628 571.718 70.894 535M-26.9903 -47L70.894 535M-26.9903 -47C-26.9903 63.7635 190.894 497 227.894 543M70.894 535C111.894 535 174.894 544.903 227.894 543" stroke="#A7A7A7" stroke-width="4"/>
<path d="M18.8942 226.5L17.0978 227.379L20.8926 226.581L18.8942 226.5ZM58.3942 210L56.8612 211.285L59.7133 214.689L60.3721 210.297L58.3942 210ZM87.109 198.533C87.9553 199.242 89.2168 199.132 89.9266 198.285C90.6364 197.439 90.5258 196.178 89.6794 195.468L88.3942 197L87.109 198.533ZM-40.0889 235.445L-38.2924 236.324C-36.1834 232.015 -32.8084 226.69 -28.6171 221.798C-24.4148 216.892 -19.4885 212.535 -14.3081 210.019C-9.16877 207.523 -3.89736 206.883 1.25946 209.15C6.48647 211.448 11.9661 216.892 17.0978 227.379L18.8942 226.5L20.6907 225.621C15.3433 214.693 9.30203 208.317 2.86934 205.489C-3.63354 202.63 -10.1607 203.558 -16.0557 206.421C-21.9098 209.264 -27.2538 214.058 -31.6548 219.195C-36.0668 224.345 -39.6281 229.954 -41.8853 234.566L-40.0889 235.445ZM18.8942 226.5L20.8926 226.581C21.3682 214.929 27.0364 206.969 33.9999 203.961C40.8711 200.993 49.5835 202.598 56.8612 211.285L58.3942 210L59.9273 208.716C51.705 198.902 41.1673 196.507 32.4136 200.289C23.7521 204.03 17.4203 213.57 16.8959 226.418L18.8942 226.5ZM58.3942 210L60.3721 210.297C61.043 205.824 64.3742 199.83 69.2625 196.533C71.6612 194.916 74.3659 193.992 77.2783 194.138C80.185 194.284 83.5007 195.506 87.109 198.533L88.3942 197L89.6794 195.468C85.5378 191.994 81.4159 190.341 77.4789 190.143C73.5475 189.946 70.0023 191.21 67.0259 193.217C61.1642 197.17 57.2454 204.176 56.4164 209.703L58.3942 210Z" fill="#A7A7A7"/>
<path d="M-39.106 256.5C-24.0665 244.193 16.394 248 28.894 285C28.894 246.5 60.894 240.5 79.394 256.5C79.394 238 99.394 222.5 118.894 240.5" stroke="#A7A7A7" stroke-width="4" stroke-linecap="round"/>
<path d="M-41.5444 320.366C-28.4456 298.213 22.8941 307.5 37.3941 335.5C34.8941 310.5 63.8941 275.999 102.394 307C96.8941 285 121.394 254.5 152.894 285" stroke="#A7A7A7" stroke-width="4"/>
<path d="M-32.106 374.223C-19.0071 352.071 31.894 362.001 46.394 390C43.894 365 88.394 324.999 126.894 356C121.394 334 160.894 303.5 192.394 334" stroke="#A7A7A7" stroke-width="4"/>
<path d="M-21.106 440.08C-8.00708 417.928 46.394 428.5 57.894 457.5C57.894 424.5 118.894 387.999 157.394 419C151.894 397 193.394 352.5 247.394 395" stroke="#A7A7A7" stroke-width="4"/>
<path d="M-10.106 511.797C2.99292 489.644 57.394 500.217 68.894 529.217C68.894 496.217 161.894 460 207.394 510.5C201.894 488.5 261.894 432 343.894 485" stroke="#A7A7A7" stroke-width="4" stroke-linecap="round"/>
</g>
<defs>
<clipPath id="clip0_46_192">
<rect width="1440" height="512" fill="white"/>
</clipPath>
</defs>
</svg>
