<svg width="319" height="559" viewBox="0 0 319 559" fill="none" xmlns="http://www.w3.org/2000/svg">
<path d="M-16.8848 1C-2.81564 104.995 46.0429 296.403 318.499 354C222.499 354 211.999 351.706 114.499 355.206M-16.8848 1L-32.8945 394.21C-19.7957 384.98 -41.7573 619.718 80.9995 583M-16.8848 1L80.9995 583M-16.8848 1C-16.8848 111.764 60.6485 267.993 114.499 355.206M80.9995 583C88.4995 426 61.4995 357.108 114.499 355.206" stroke="#A7A7A7" stroke-width="4"/>
<path d="M-29.9844 283.446C-21.2518 265.601 8.04052 231.672 28.9987 274.5C29.9987 250 41.2118 231.275 64.4987 264.5C66.4393 250.347 73.4987 225 97.9987 246" stroke="#A7A7A7" stroke-width="4"/>
<path d="M-28 315.5C-12.9606 303.192 21.5348 309.416 39 336C39 284.307 63.6685 281.5 85.5 305.5C88.4109 284.578 110.391 259.324 139.5 280" stroke="#A7A7A7" stroke-width="4"/>
<path d="M-31.4395 368.366C-18.3406 346.213 32.9991 355.5 47.4991 383.5C44.9991 358.5 74.9991 323.999 113.499 355C104.767 334.694 154.999 298.999 219.999 323.999" stroke="#A7A7A7" stroke-width="4"/>
</svg>
