<svg width="60" height="60" viewBox="0 0 60 60" fill="none" xmlns="http://www.w3.org/2000/svg">
<rect width="60" height="60" rx="30" fill="white" fill-opacity="0.1"/>
<path d="M33.9 44.625V37.0668C33.9 36.1556 33.4857 35.2936 32.7741 34.7242L30.15 32.625M30.15 32.625L32.4 22.875M30.15 32.625L27.9 31.125M32.4 22.875L29.4 22.125M32.4 22.875L35.4639 27.7771C35.9018 28.4778 36.6093 28.9668 37.4195 29.129L39.9 29.625M27.9 31.125L29.4 22.125M27.9 31.125L24.9 44.625M29.4 22.125L25.0584 24.2958C24.042 24.804 23.4 25.8428 23.4 26.9792V29.625M34.65 16.875C34.65 17.7034 33.9785 18.375 33.15 18.375C32.3216 18.375 31.65 17.7034 31.65 16.875C31.65 16.0466 32.3216 15.375 33.15 15.375C33.9785 15.375 34.65 16.0466 34.65 16.875Z" stroke="white" stroke-width="3" stroke-linecap="round" stroke-linejoin="round"/>
</svg>
