<svg width="24" height="24" viewBox="0 0 24 24" fill="none" xmlns="http://www.w3.org/2000/svg">
<path d="M16.1599 10C16.1599 10 16.0099 11 12.9099 15C9.9999 18.77 14.2099 21.64 14.7099 21.97C14.7399 21.99 14.7699 21.99 14.8099 21.97C15.4899 21.55 23.0599 16.68 16.1599 10Z" fill="white" fill-opacity="0.4"/>
<path d="M13.76 7.79C13.76 5.49 12.86 3.39 11.96 2.19C11.66 1.89 11.16 1.99 11.06 2.39C10.66 3.89 9.46001 7.09 6.56001 10.89C2.86001 15.69 6.26002 20.89 9.76002 21.89C11.66 22.39 9.26003 20.89 8.96003 17.79C8.66003 13.89 13.76 10.99 13.76 7.79Z" fill="white" fill-opacity="0.4"/>
</svg>
