{
  "asset": {
    "version": "2.0",
    "generator": "THREE.GLTFExporter r176"
  },
  "scenes": [
    {
      "name": "Scene",
      "nodes": [
        0,
        4
      ]
    }
  ],
  "scene": 0,
  "nodes": [
    {
      "matrix": [
        1,
        0,
        0,
        0,
        0,
        1,
        0,
        0,
        0,
        0,
        1,
        0,
        5,
        10,
        7.5,
        1
      ],
      "name": "DirectionalLight",
      "extensions": {
        "KHR_lights_punctual": {
          "light": 0
        }
      }
    },
    {
      "name": "Torus010",
      "mesh": 0
    },
    {
      "name": "Torus010_1",
      "mesh": 1
    },
    {
      "matrix": [
        -0.9987865764281711,
        -0.0019838144340450174,
        -0.04920812155716109,
        0,
        -0.0016052697765645543,
        0.9999688264639786,
        -0.007731054856744648,
        0,
        0.049221924544226386,
        -0.007642681502249146,
        -0.9987586252762066,
        0,
        0.03679555657450436,
        0.11227310251772578,
        0.19967259126876613,
        1
      ],
      "name": "icing004",
      "extras": {
        "name": "icing.004"
      },
      "children": [
        1,
        2
      ]
    },
    {
      "name": "uploads_files_4028786_DONET+real+life+demension+for+get+pecture.glb",
      "children": [
        3
      ]
    }
  ],
  "extensions": {
    "KHR_lights_punctual": {
      "lights": [
        {
          "name": "DirectionalLight",
          "color": [
            1,
            1,
            1
          ],
          "intensity": 1,
          "type": "directional"
        }
      ]
    }
  },
  "bufferViews": [
    {
      "buffer": 0,
      "byteOffset": 0,
      "byteLength": 445872,
      "target": 34962,
      "byteStride": 12
    },
    {
      "buffer": 0,
      "byteOffset": 445872,
      "byteLength": 445872,
      "target": 34962,
      "byteStride": 12
    },
    {
      "buffer": 0,
      "byteOffset": 891744,
      "byteLength": 297248,
      "target": 34962,
      "byteStride": 8
    },
    {
      "buffer": 0,
      "byteOffset": 1188992,
      "byteLength": 297248,
      "target": 34962,
      "byteStride": 8
    },
    {
      "buffer": 0,
      "byteOffset": 1486240,
      "byteLength": 444528,
      "target": 34963
    },
    {
      "buffer": 0,
      "byteOffset": 1930768,
      "byteLength": 102396,
      "target": 34962,
      "byteStride": 12
    },
    {
      "buffer": 0,
      "byteOffset": 2033164,
      "byteLength": 102396,
      "target": 34962,
      "byteStride": 12
    },
    {
      "buffer": 0,
      "byteOffset": 2135560,
      "byteLength": 68264,
      "target": 34962,
      "byteStride": 8
    },
    {
      "buffer": 0,
      "byteOffset": 2203824,
      "byteLength": 68264,
      "target": 34962,
      "byteStride": 8
    },
    {
      "buffer": 0,
      "byteOffset": 2272088,
      "byteLength": 99840,
      "target": 34963
    }
  ],
  "buffers": [
    {
      "byteLength": 2371928,
      "uri": "data:application/octet-stream;base64,"
    }
  ],
  "accessors": [
    {
      "bufferView": 0,
      "componentType": 5126,
      "count": 37156,
      "max": [
        1.6275182962417603,
        0.7890520095825195,
        1.6287177801132202
      ],
      "min": [
        -1.6361500024795532,
        -0.45480042695999146,
        -1.5950275659561157
      ],
      "type": "VEC3"
    },
    {
      "bufferView": 1,
      "componentType": 5126,
      "count": 37156,
      "max": [
        0.9999796152114868,
        0.9999947547912598,
        0.9999334812164307
      ],
      "min": [
        -0.9998325109481812,
        -0.9999921917915344,
        -0.9999068379402161
      ],
      "type": "VEC3"
    },
    {
      "bufferView": 2,
      "componentType": 5126,
      "count": 37156,
      "max": [
        1.0000001192092896,
        0.46153849363327026
      ],
      "min": [
        4.440892098500626e-16,
        -1.1920928955078125e-7
      ],
      "type": "VEC2"
    },
    {
      "bufferView": 3,
      "componentType": 5123,
      "count": 37156,
      "max": [
        65535,
        65535,
        65535,
        65535
      ],
      "min": [
        65535,
        65535,
        65535,
        65535
      ],
      "type": "VEC4",
      "normalized": true
    },
    {
      "bufferView": 4,
      "componentType": 5123,
      "count": 222264,
      "max": [
        37155
      ],
      "min": [
        0
      ],
      "type": "SCALAR"
    },
    {
      "bufferView": 5,
      "componentType": 5126,
      "count": 8533,
      "max": [
        1.6098506450653076,
        0.7359165549278259,
        1.5748589038848877
      ],
      "min": [
        -1.5699317455291748,
        -0.6853733062744141,
        -1.5660207271575928
      ],
      "type": "VEC3"
    },
    {
      "bufferView": 6,
      "componentType": 5126,
      "count": 8533,
      "max": [
        0.998712420463562,
        0.9999948740005493,
        0.9998461604118347
      ],
      "min": [
        -0.9998008608818054,
        -0.9999532699584961,
        -0.9998418092727661
      ],
      "type": "VEC3"
    },
    {
      "bufferView": 7,
      "componentType": 5126,
      "count": 8533,
      "max": [
        1.0000001192092896,
        1
      ],
      "min": [
        4.440892098500626e-16,
        -1.1920928955078125e-7
      ],
      "type": "VEC2"
    },
    {
      "bufferView": 8,
      "componentType": 5123,
      "count": 8533,
      "max": [
        65535,
        65535,
        65535,
        65535
      ],
      "min": [
        65535,
        65535,
        65535,
        65535
      ],
      "type": "VEC4",
      "normalized": true
    },
    {
      "bufferView": 9,
      "componentType": 5123,
      "count": 49920,
      "max": [
        8532
      ],
      "min": [
        0
      ],
      "type": "SCALAR"
    }
  ],
  "materials": [
    {
      "pbrMetallicRoughness": {
        "baseColorFactor": [
          0.04970656597728775,
          0.0343398068028541,
          0.00972121731707524,
          1
        ],
        "metallicFactor": 0,
        "roughnessFactor": 0.13636364042758942
      },
      "doubleSided": true,
      "name": "Material.001"
    },
    {
      "pbrMetallicRoughness": {
        "metallicFactor": 0,
        "roughnessFactor": 0.38181814551353455,
        "baseColorTexture": {
          "index": 0,
          "texCoord": 0
        }
      },
      "doubleSided": true,
      "name": "Material.003"
    }
  ],
  "meshes": [
    {
      "primitives": [
        {
          "mode": 4,
          "attributes": {
            "POSITION": 0,
            "NORMAL": 1,
            "TEXCOORD_0": 2,
            "COLOR_0": 3
          },
          "indices": 4,
          "material": 0
        }
      ]
    },
    {
      "primitives": [
        {
          "mode": 4,
          "attributes": {
            "POSITION": 5,
            "NORMAL": 6,
            "TEXCOORD_0": 7,
            "COLOR_0": 8
          },
          "indices": 9,
          "material": 1
        }
      ]
    }
  ],
  "textures": [
    {
      "sampler": 0,
      "source": 0,
      "name": "Untitled"
    }
  ],
  "samplers": [
    {
      "magFilter": 9729,
      "minFilter": 9987,
      "wrapS": 10497,
      "wrapT": 10497
    }
  ],
  "images": [
    {
      "mimeType": "image/png",
      "uri": "data:image/png;base64,"
    }
  ],
  "extensionsUsed": [
    "KHR_lights_punctual"
  ]
}