<svg width="121" height="27" viewBox="0 0 121 27" fill="none" xmlns="http://www.w3.org/2000/svg">
<path d="M7.47596 26.6796H28.4145V16.6769L0.496094 11.1213L7.47596 26.6796Z" fill="url(#paint0_linear_1632_1464)"/>
<path d="M0.496094 11.1213L7.47596 26.6796H28.4145L0.496094 11.1213Z" fill="url(#paint1_linear_1632_1464)"/>
<path d="M13.8438 18.5595L28.4168 0.00683594L28.4086 26.6811L13.8438 18.5595Z" fill="url(#paint2_linear_1632_1464)"/>
<path d="M43.9225 7.08358C46.6966 7.08358 49.0607 8.0488 51.015 9.97923C52.9693 11.9097 53.9461 14.263 53.9454 17.0393C53.9454 19.8156 52.9682 22.169 51.014 24.0994C49.0597 26.0299 46.6959 26.9967 43.9225 27C40.6461 27 38.1498 25.7508 36.4338 23.2523V26.5079H32.9863V0.00488281H36.4368V10.8313C38.1522 8.33282 40.6474 7.08358 43.9225 7.08358ZM43.4863 23.8118C45.4659 23.8118 47.13 23.1619 48.4788 21.8622C49.8276 20.5624 50.5013 18.9535 50.5 17.0354C50.5 15.118 49.8263 13.5091 48.4788 12.2087C47.1314 10.9083 45.4672 10.2584 43.4863 10.259C41.4781 10.259 39.801 10.9089 38.4549 12.2087C37.1089 13.5085 36.4362 15.1187 36.4368 17.0393C36.4368 18.958 37.1106 20.567 38.458 21.8661C39.8054 23.1652 41.4816 23.8151 43.4863 23.8158V23.8118Z" fill="white"/>
<path d="M73.7568 7.57556H77.2042V26.503H73.7568V23.2473C72.04 25.7458 69.5441 26.995 66.2691 26.995C63.495 26.995 61.1308 26.0298 59.1766 24.0994C57.2223 22.1689 56.2448 19.8156 56.2441 17.0393C56.2441 14.263 57.2216 11.9096 59.1766 9.97915C61.1315 8.04871 63.4957 7.0835 66.2691 7.0835C69.5455 7.0835 72.0414 8.33273 73.7568 10.8312V7.57556ZM66.7042 23.8147C68.711 23.8147 70.3885 23.1648 71.7366 21.865C73.0848 20.5652 73.7581 18.9563 73.7568 17.0383C73.7568 15.1209 73.0834 13.512 71.7366 12.2115C70.3899 10.9111 68.7124 10.2612 66.7042 10.2619C64.7247 10.2619 63.0605 10.9118 61.7117 12.2115C60.3629 13.5113 59.6895 15.1202 59.6916 17.0383C59.6916 18.957 60.365 20.5659 61.7117 21.865C63.0585 23.1641 64.7226 23.8144 66.7042 23.8157V23.8147Z" fill="white"/>
<path d="M92.3255 10.755H87.0556V21.014C87.0556 21.9485 87.247 22.6112 87.63 23.0018C88.0129 23.3925 88.6006 23.5943 89.3931 23.6073C90.1856 23.6204 91.1631 23.6015 92.3255 23.5506V26.503C89.3146 26.8813 87.1088 26.6478 85.7081 25.8026C84.3074 24.9573 83.6074 23.3595 83.6081 21.0091V10.755H79.6855V7.57561H83.6081V3.25952L87.0556 2.27539V7.57561H92.3255V10.755Z" fill="white"/>
<path d="M111.532 24.118C109.499 26.0393 107.029 26.9999 104.123 26.9999C101.217 26.9999 98.7543 26.0409 96.7338 24.1228C94.7134 22.2055 93.7031 19.8459 93.7031 17.0441C93.7031 14.2424 94.7134 11.8828 96.7338 9.96545C98.7536 8.04675 101.217 7.08773 104.123 7.08838C107.03 7.08903 109.499 8.04805 111.532 9.96545C113.566 11.8835 114.583 14.2431 114.583 17.0441C114.583 19.8452 113.566 22.2032 111.532 24.118ZM104.123 23.7775C106.103 23.7775 107.767 23.1342 109.116 21.8474C110.465 20.5607 111.138 18.958 111.137 17.0393C111.137 15.1219 110.463 13.5195 109.116 12.2321C107.768 10.9447 106.104 10.301 104.123 10.301C102.169 10.301 100.518 10.9447 99.1707 12.2321C97.8233 13.5195 97.1512 15.1219 97.1547 17.0393C97.1547 18.958 97.828 20.5607 99.1748 21.8474C100.522 23.1342 102.171 23.7775 104.123 23.7775Z" fill="white"/>
<path d="M120.504 23.1504H116.994V26.5039H120.504V23.1504Z" fill="white"/>
<defs>
<linearGradient id="paint0_linear_1632_1464" x1="1.34183" y1="13.5866" x2="18.3202" y2="22.6509" gradientUnits="userSpaceOnUse">
<stop offset="0.14" stop-color="#06FFFF"/>
<stop offset="0.38" stop-color="#05F9FF"/>
<stop offset="0.7" stop-color="#02E8FF"/>
<stop offset="0.88" stop-color="#00DBFF"/>
<stop offset="0.92" stop-color="#00CBF4"/>
<stop offset="0.99" stop-color="#00A2D7"/>
<stop offset="1" stop-color="#009ED4"/>
</linearGradient>
<linearGradient id="paint1_linear_1632_1464" x1="23.8981" y1="33.1841" x2="6.46455" y2="12.3154" gradientUnits="userSpaceOnUse">
<stop offset="0.41" stop-color="#06FFFF"/>
<stop offset="0.55" stop-color="#03EFFF"/>
<stop offset="0.69" stop-color="#00DBFF"/>
<stop offset="0.79" stop-color="#00CBF4"/>
<stop offset="0.98" stop-color="#00A2D7"/>
<stop offset="1" stop-color="#009ED4"/>
</linearGradient>
<linearGradient id="paint2_linear_1632_1464" x1="29.7172" y1="2.5249" x2="21.9931" y2="22.3125" gradientUnits="userSpaceOnUse">
<stop offset="0.33" stop-color="#06FFFF"/>
<stop offset="0.54" stop-color="#03EFFF"/>
<stop offset="0.75" stop-color="#00DBFF"/>
<stop offset="0.83" stop-color="#00CBF4"/>
<stop offset="0.98" stop-color="#00A2D7"/>
<stop offset="1" stop-color="#009ED4"/>
</linearGradient>
</defs>
</svg>
