<svg width="24" height="24" viewBox="0 0 24 24" fill="none" xmlns="http://www.w3.org/2000/svg">
<g clip-path="url(#clip0_1151_557)">
<path d="M4.728 7.8L2.664 4.368L4.368 2.664L7.8 4.728C8.424 4.368 9.12 4.08 9.84 3.888L10.8 0H13.2L14.16 3.888C14.88 4.08 15.576 4.368 16.2 4.728L19.632 2.664L21.336 4.368L19.272 7.8C19.632 8.424 19.92 9.12 20.112 9.84L24 10.8V13.2L20.112 14.16C19.92 14.88 19.632 15.576 19.272 16.2L21.336 19.632L19.632 21.336L16.2 19.272C15.576 19.632 14.88 19.92 14.16 20.112L13.2 24H10.8L9.84 20.112C9.12 19.92 8.424 19.632 7.8 19.272L4.368 21.336L2.664 19.632L4.728 16.2C4.368 15.576 4.08 14.88 3.888 14.16L0 13.2V10.8L3.888 9.84C4.08 9.12 4.368 8.424 4.728 7.8ZM12 15.6C12.9548 15.6 13.8705 15.2207 14.5456 14.5456C15.2207 13.8705 15.6 12.9548 15.6 12C15.6 11.0452 15.2207 10.1295 14.5456 9.45442C13.8705 8.77929 12.9548 8.4 12 8.4C11.0452 8.4 10.1295 8.77929 9.45442 9.45442C8.77929 10.1295 8.4 11.0452 8.4 12C8.4 12.9548 8.77929 13.8705 9.45442 14.5456C10.1295 15.2207 11.0452 15.6 12 15.6Z" fill="white"/>
</g>
<defs>
<clipPath id="clip0_1151_557">
<rect width="24" height="24" fill="white"/>
</clipPath>
</defs>
</svg>
