<svg width="14" height="14" viewBox="0 0 14 14" fill="none" xmlns="http://www.w3.org/2000/svg">
<path d="M3.33398 7.66658L3.85696 8.71253C4.03395 9.06651 4.12245 9.24351 4.24067 9.39688C4.34558 9.53298 4.46759 9.65499 4.60369 9.7599C4.75706 9.87812 4.93405 9.96662 5.28804 10.1436L6.33398 10.6666L5.28804 11.1896C4.93405 11.3665 4.75706 11.455 4.60369 11.5733C4.46759 11.6782 4.34558 11.8002 4.24067 11.9363C4.12245 12.0897 4.03395 12.2667 3.85696 12.6206L3.33398 13.6666L2.81101 12.6206C2.63402 12.2667 2.54552 12.0897 2.4273 11.9363C2.32239 11.8002 2.20038 11.6782 2.06428 11.5733C1.91091 11.455 1.73391 11.3665 1.37993 11.1896L0.333984 10.6666L1.37993 10.1436C1.73391 9.96662 1.91091 9.87812 2.06428 9.7599C2.20038 9.65499 2.32239 9.53298 2.4273 9.39688C2.54552 9.24351 2.63402 9.06651 2.81101 8.71253L3.33398 7.66658Z" fill="white"/>
<path d="M9.00065 0.333252L9.7864 2.3762C9.97441 2.86502 10.0684 3.10943 10.2146 3.31501C10.3442 3.49722 10.5033 3.65642 10.6856 3.78598C10.8911 3.93216 11.1356 4.02616 11.6244 4.21417L13.6673 4.99992L11.6244 5.78567C11.1356 5.97367 10.8911 6.06768 10.6856 6.21386C10.5033 6.34342 10.3442 6.50262 10.2146 6.68482C10.0684 6.89041 9.97441 7.13482 9.7864 7.62364L9.00065 9.66658L8.2149 7.62364C8.02689 7.13482 7.93289 6.89041 7.78671 6.68482C7.65715 6.50262 7.49795 6.34342 7.31575 6.21386C7.11016 6.06768 6.86575 5.97367 6.37693 5.78567L4.33398 4.99992L6.37693 4.21417C6.86575 4.02616 7.11016 3.93216 7.31574 3.78598C7.49795 3.65642 7.65715 3.49722 7.78671 3.31501C7.93289 3.10943 8.02689 2.86502 8.2149 2.3762L9.00065 0.333252Z" fill="white"/>
</svg>
