<svg width="300" height="205" viewBox="0 0 300 205" fill="none" xmlns="http://www.w3.org/2000/svg">
<rect width="300" height="205" rx="10" fill="white"/>
<path fill-rule="evenodd" clip-rule="evenodd" d="M57.9296 126.481C45.1091 126.481 34.6155 115.724 34.6155 102.392C34.6155 89.2754 45.1091 78.5194 57.9296 78.5194C70.9129 78.5194 81.4068 89.2754 81.4068 102.392C81.4068 115.724 70.9129 126.481 57.9296 126.481ZM57.9296 116.44C65.5614 116.44 71.6112 110.239 71.6112 102.392C71.6112 94.7367 65.5614 88.5362 57.9296 88.5362C50.4375 88.5362 44.388 94.737 44.388 102.392C44.388 110.239 50.4375 116.44 57.9296 116.44ZM201.701 126.481C188.88 126.481 178.387 115.724 178.387 102.392C178.387 89.2754 188.88 78.5194 201.701 78.5194C214.684 78.5194 225.178 89.2754 225.178 102.392C225.178 115.724 214.684 126.481 201.701 126.481ZM201.701 116.44C209.333 116.44 215.382 110.239 215.382 102.392C215.382 94.7367 209.333 88.5362 201.701 88.5362C194.208 88.5362 188.159 94.737 188.159 102.392C188.159 110.239 194.208 116.44 201.701 116.44ZM84.0827 79.9741V125.384H93.8549V88.369H104.721V125.384H114.493V88.369H118.239C122.149 88.369 125.173 91.4695 125.173 95.2856V125.384H134.969V95.6433C134.969 86.7235 128.035 79.5927 119.31 79.5927H94.0411C90.6674 79.5927 87.2701 79.5927 84.0824 79.9741M227.854 79.9741V125.384H237.626V88.369H248.678C252.401 88.369 255.612 91.4695 255.612 95.2856V125.384H265.385V95.6433C265.385 86.7235 258.451 79.5927 249.725 79.5927H237.626C234.438 79.5927 231.041 79.5927 227.854 79.9741ZM139.064 79.9741V125.384H148.836V88.369H160.401C164.333 88.369 167.358 91.4695 167.358 95.2856C167.358 99.2922 164.333 102.392 160.401 102.392H152.047L167.171 125.384H179.27L168.242 108.784C173.57 106.781 177.13 101.486 177.13 95.2856C177.13 86.7235 170.383 79.5927 161.82 79.5927H148.837C145.463 79.5927 142.252 79.5927 139.064 79.9741Z" fill="#166FC0"/>
</svg>
