<svg width="300" height="205" viewBox="0 0 300 205" fill="none" xmlns="http://www.w3.org/2000/svg">
<g filter="url(#filter0_b_267_975)">
<rect width="300" height="205" rx="10" fill="white" fill-opacity="0.1"/>
<path d="M47.2821 112.632H58.9674C61.1824 112.632 63.2515 114.29 63.3636 116.487H63.4702V107.457H47.2821L47.2742 91.6053H62.8928C65.1171 91.6053 67.1884 93.2577 67.3043 95.4493H67.4072L67.3914 86.4123L34.6152 86.4266V86.5254C36.8224 86.6489 38.4776 89.0442 38.4776 91.2823V132.808C38.4776 135.038 36.8224 137.443 34.6152 137.57V137.667H51.1523V137.57C48.9433 137.443 47.2737 135.038 47.2737 132.808L47.2821 112.632ZM81.1199 123.888C81.1199 129.216 85.4549 133.823 90.8048 133.823C96.1491 133.823 100.5 129.155 100.5 123.825V91.2818C100.5 89.0437 98.8391 86.6479 96.6264 86.5249V86.428L113.175 86.4119V86.5249C110.966 86.6484 109.293 89.0437 109.293 91.2818V122.904C109.293 133.082 101.06 139.012 90.8483 139.012C80.6194 139.012 72.2978 133.082 72.2978 122.904L72.3196 91.2818C72.3196 89.0437 70.6505 86.6479 68.453 86.5249V86.4119H84.9781V86.5249C82.7751 86.6603 81.112 89.058 81.112 91.2818L81.1199 123.888ZM216.333 94.7116C213.561 90.1328 207.233 90.6838 207.233 90.6838C196.884 90.6838 197.373 98.7537 197.373 98.7537C197.373 98.7537 196.662 102.801 201.862 105.562L212.209 111.181C222.198 116.659 221.014 124.443 221.014 124.443C221.014 124.443 221.465 138.986 200.575 138.986C200.575 138.986 194.506 139.176 191.069 137.859L188.129 128.44H188.231C191.414 133.131 200.66 133.807 200.66 133.807C212.398 133.28 212.479 125.128 212.479 125.128C212.479 125.128 213.007 121.618 208.412 119.075L198.114 113.458C187.363 107.586 188.594 99.6784 188.594 99.6784C188.594 99.6784 188.34 85.3721 206.822 85.3721C206.822 85.3721 215.118 85.5902 216.44 86.913V94.7116H216.333ZM135.7 68.5931C137.533 70.4313 140.091 71.5603 142.883 71.5603C148.509 71.5603 153.063 67.0238 153.063 61.4167C153.063 55.8262 148.509 51.2812 142.883 51.2812C142.883 51.2812 135.046 50.5402 131.519 60.5337L131.531 53.0324C134.156 49.6088 138.219 47.1204 142.883 47.1204C150.821 47.1204 157.243 53.515 157.243 61.4167C157.243 69.3061 150.821 75.7249 142.883 75.7249C138.918 75.7249 135.332 74.1313 132.741 71.5318L127.802 65.9997C126.449 64.6522 124.587 63.8324 122.545 63.8324C118.433 63.8324 115.099 67.1449 115.099 71.2373C115.099 75.3454 118.433 78.6659 122.545 78.6659C122.545 78.6659 128.045 79.4012 131.519 72.6086L131.531 78.6151C129.403 81.1885 126.153 82.8305 122.545 82.8305C116.125 82.8305 110.911 77.6395 110.911 71.2368C110.911 64.846 116.125 59.6673 122.545 59.6673C125.743 59.6673 128.648 60.9479 130.757 63.0606L135.7 68.5931ZM138.346 91.1745C138.346 88.934 136.683 86.6399 134.479 86.5244V86.4275H150.99V86.5244C148.798 86.6498 147.127 88.9463 147.127 91.1745V132.788C147.127 135.022 148.798 137.426 150.99 137.559V137.654H134.479V137.559C136.683 137.426 138.346 135.022 138.346 132.788V91.1745ZM127.978 91.2823C127.978 89.0447 129.637 86.6489 131.845 86.5259V86.4266H115.308V86.5259C117.52 86.6494 119.172 89.0447 119.172 91.2823L119.186 143.306C119.186 143.306 119 152.493 111.781 157.779L111.798 157.88C113.223 157.641 127.99 154.848 127.99 140.227L127.978 91.2823Z" fill="#B2B2B2"/>
<path d="M150.928 95.6454H151.027C153.265 91.6523 156.718 91.6057 156.718 91.6057H165.67L165.676 132.808C165.676 135.038 164.011 137.425 161.806 137.559V137.654H178.364V137.559C176.141 137.426 174.47 135.022 174.47 132.808L174.482 91.6057L181.964 91.5877C184.236 91.5877 186.036 93.3935 186.101 95.6454H186.191L188.94 86.4109H153.685L150.928 95.6454ZM233.334 123.888C233.334 129.216 237.669 133.823 243.021 133.823C248.359 133.823 252.714 129.155 252.714 123.825V91.2818C252.714 89.0437 251.051 86.6479 248.848 86.5249V86.428L265.385 86.4118V86.5249C263.191 86.6484 261.52 89.0437 261.52 91.2818V122.904C261.52 133.082 253.284 139.012 243.057 139.012C232.847 139.012 224.523 133.082 224.523 122.904L224.535 91.2818C224.535 89.0437 222.87 86.6479 220.661 86.5249V86.4118H237.202V86.5249C234.987 86.6603 233.322 89.0579 233.322 91.2818L233.334 123.888Z" fill="#B2B2B2"/>
</g>
<defs>
<filter id="filter0_b_267_975" x="-50" y="-50" width="400" height="305" filterUnits="userSpaceOnUse" color-interpolation-filters="sRGB">
<feFlood flood-opacity="0" result="BackgroundImageFix"/>
<feGaussianBlur in="BackgroundImageFix" stdDeviation="25"/>
<feComposite in2="SourceAlpha" operator="in" result="effect1_backgroundBlur_267_975"/>
<feBlend mode="normal" in="SourceGraphic" in2="effect1_backgroundBlur_267_975" result="shape"/>
</filter>
</defs>
</svg>
