<svg width="300" height="205" viewBox="0 0 300 205" fill="none" xmlns="http://www.w3.org/2000/svg">
<rect width="300" height="205" rx="10" fill="white"/>
<path d="M78.9522 83.3304C77.753 83.5911 76.699 84.1946 75.8487 85.1109C74.693 86.3625 74.1479 87.8973 74.2496 89.6182C74.3078 90.5048 74.4459 91.0486 74.8093 91.8383C75.3835 93.0601 76.2775 93.9913 77.4622 94.5948C78.3635 95.0493 79.0686 95.2206 80.0716 95.2206C82.9135 95.2206 85.203 93.3283 85.8281 90.4824C85.9952 89.7001 85.9371 88.2474 85.7118 87.5098C85.3484 86.3178 84.6361 85.2524 83.7203 84.5224C83.1533 84.0604 82.2593 83.5911 81.6052 83.4123C81.0019 83.2484 79.5482 83.2037 78.9522 83.3304ZM162.167 83.3304C160.997 83.5837 160.045 84.1201 159.158 85.0438C158.417 85.8112 157.944 86.6307 157.668 87.6216C157.036 89.9609 157.864 92.5237 159.732 93.9913C160.794 94.8183 161.956 95.2206 163.294 95.2206C164.907 95.2206 166.23 94.6917 167.357 93.5891C168.374 92.5982 168.985 91.3391 169.145 89.9088C169.319 88.3666 168.898 86.8318 167.967 85.5728C167.226 84.582 166.012 83.7401 164.827 83.4123C164.231 83.2484 162.778 83.2037 162.167 83.3304ZM118.056 85.3493V87.2491H118.841C119.815 87.2491 120.164 87.3981 120.433 87.9196L120.6 88.2399V101.881C120.6 110.605 120.571 115.619 120.527 115.783C120.44 116.118 120.055 116.505 119.72 116.602C119.589 116.647 119.153 116.677 118.768 116.677H118.056V121.743H135.136V116.692L134.104 116.662C133.225 116.647 133.029 116.617 132.818 116.49C132.483 116.289 132.294 116.014 132.222 115.626C132.135 115.164 132.142 110.046 132.229 109.428C132.425 108.027 133.479 106.977 134.911 106.746C135.558 106.649 136.278 106.768 136.881 107.074C137.448 107.364 138.116 108.102 138.349 108.683L138.516 109.115L138.538 115.425L138.56 121.743H152.58V116.677H151.367C149.746 116.669 149.455 116.595 149.062 116.051C148.91 115.85 148.91 115.745 148.866 110.918C148.823 105.509 148.83 105.636 148.365 104.682C147.638 103.214 146.075 102.239 143.844 101.881C142.754 101.702 139.599 101.769 138.611 101.993C137.6 102.216 136.576 102.604 135.209 103.267C133.886 103.907 133.595 104.012 133.079 104.012C132.629 104.012 132.338 103.855 132.236 103.557C132.178 103.386 132.156 100.465 132.156 93.3879V83.4496H118.056V85.3493ZM34.6155 104.31V106.843H36.3453C37.2902 106.843 38.1842 106.872 38.3151 106.917C38.6494 107.014 39.0346 107.401 39.1218 107.737C39.1655 107.893 39.1945 109.525 39.1945 111.797C39.1945 115.328 39.18 115.619 39.0564 115.894C38.7366 116.61 38.504 116.677 36.3599 116.677H34.6155V121.743H52.7136V116.677H51.6451C51.0491 116.677 50.4531 116.639 50.315 116.602C50.0171 116.52 49.6318 116.148 49.5228 115.835C49.4211 115.559 49.4138 109.771 49.5156 109.234C49.8136 107.617 51.478 106.478 53.1206 106.753C54.1891 106.932 55.1122 107.625 55.541 108.556L55.73 108.966L55.7518 115.351L55.7663 121.743H69.5761V116.677H68.5077C66.9886 116.669 66.5453 116.535 66.2473 115.984C66.1382 115.768 66.1237 115.306 66.0874 110.754C66.051 105.919 66.0438 105.747 65.8984 105.353C65.5931 104.526 65.3387 104.123 64.7863 103.565C64.3503 103.118 64.0886 102.931 63.5434 102.656C62.1697 101.963 61.1885 101.777 58.9353 101.777C56.0862 101.777 54.9741 102.03 52.4302 103.274C51.2091 103.87 50.8021 104.012 50.257 104.012C49.9226 104.012 49.8354 103.982 49.6537 103.796C49.4429 103.58 49.4429 103.572 49.4429 102.678V101.777H34.6155V104.31ZM72.0473 104.31V106.843H73.5955C75.3326 106.843 75.5798 106.902 75.9068 107.372L76.0812 107.625V115.894L75.9141 116.14C75.587 116.61 75.4562 116.639 73.6682 116.662L72.0474 116.684V121.743H88.9825V116.692L88.1322 116.669C87.4344 116.647 87.2309 116.61 87.0274 116.49C86.693 116.289 86.504 116.014 86.4314 115.626C86.4023 115.447 86.3732 112.259 86.3659 108.534V101.777H72.0473V104.31ZM109.029 102.753C109.007 103.684 109 103.736 108.825 103.878C108.527 104.123 108.105 104.026 106.957 103.468C105.082 102.544 103.781 102.224 101.717 102.164C100.205 102.127 99.3763 102.231 98.2133 102.611C96.8105 103.066 95.9892 103.58 94.9208 104.667C94.1212 105.472 93.4816 106.366 93.0165 107.327C92.2387 108.944 91.9407 110.225 91.9335 112.058C91.9262 113.421 92.0207 114.047 92.4132 115.187C93.1981 117.466 94.8044 119.269 97.014 120.364C98.9983 121.348 100.873 121.705 103.919 121.698C105.482 121.698 105.99 121.668 106.863 121.527C111.202 120.849 114.08 119.187 115.316 116.639C115.759 115.738 115.955 114.971 116.064 113.786L116.115 113.25H109.348L109.261 113.734C109.065 114.814 108.411 115.76 107.619 116.133C106.339 116.729 104.777 116.431 103.854 115.41C103.076 114.546 102.734 113.496 102.669 111.752C102.596 109.867 102.96 108.534 103.781 107.722C104.886 106.634 106.921 106.619 108.091 107.699C108.527 108.102 108.883 108.899 108.956 109.599L109.007 110.158L112.554 110.18L116.093 110.195L116.079 106.008L116.057 101.814L112.554 101.792L109.058 101.777L109.029 102.753ZM155.27 104.31V106.843H156.818C158.162 106.843 158.395 106.865 158.657 106.984C159.042 107.163 159.238 107.431 159.333 107.893C159.442 108.4 159.442 115.12 159.333 115.634C159.238 116.096 158.904 116.476 158.504 116.595C158.337 116.639 157.595 116.677 156.745 116.677H155.27V121.743H172.278V116.692L171.391 116.662C170.148 116.625 169.821 116.409 169.661 115.552C169.617 115.313 169.588 112.579 169.588 108.474V101.777H155.27L155.27 104.31ZM192.193 102.745C192.193 103.617 192.178 103.729 192.047 103.863C191.771 104.146 191.059 103.989 190.056 103.416C189.431 103.065 188.086 102.596 187.069 102.373C186.153 102.171 184.001 102.09 183.093 102.216C181.712 102.417 180.294 102.939 179.335 103.594C178.216 104.362 176.922 105.889 176.246 107.245C175.512 108.713 175.199 110.001 175.134 111.76C175.076 113.466 175.33 114.74 176.021 116.17C177.496 119.225 180.287 121.013 184.488 121.609C185.535 121.75 188.66 121.735 189.787 121.571C195.267 120.782 198.451 118.465 199.141 114.762C199.199 114.457 199.243 113.987 199.243 113.726V113.25H192.556L192.52 113.451C192.295 114.531 192.018 115.127 191.495 115.634C191.023 116.096 190.645 116.274 189.918 116.394C188.493 116.617 187.09 115.88 186.465 114.576C186.051 113.704 185.927 113.123 185.891 111.715C185.862 110.709 185.877 110.314 185.971 109.815C186.298 108.124 187.228 107.103 188.602 106.925C190.303 106.709 191.742 107.625 192.076 109.145C192.142 109.435 192.193 109.785 192.193 109.927V110.195H199.243V101.777H192.193L192.193 102.745ZM230.497 104.31V106.843H232.263C234.24 106.843 234.458 106.895 234.792 107.372L234.967 107.625L234.989 111.67C235.01 116.222 235.025 116.066 234.473 116.438L234.182 116.639L232.336 116.662L230.497 116.684V121.743H248.595V116.692L247.381 116.662C246.022 116.639 245.811 116.572 245.491 116.096C245.266 115.745 245.237 115.269 245.266 112.132C245.295 109.554 245.31 109.301 245.44 108.884C245.818 107.729 246.763 106.947 248.013 106.746C249.264 106.552 250.623 107.2 251.255 108.295C251.648 108.988 251.648 108.973 251.648 115.611V121.743H265.385V116.677H264.353C262.848 116.669 262.543 116.58 262.158 116.051C262.005 115.85 262.005 115.745 261.961 110.918C261.918 105.539 261.925 105.628 261.482 104.727C260.748 103.214 259.192 102.246 256.939 101.881C255.849 101.702 252.694 101.769 251.706 101.993C250.695 102.216 249.671 102.604 248.304 103.267C246.989 103.907 246.691 104.012 246.182 104.012C245.426 104.012 245.251 103.736 245.251 102.566V101.777H230.497V104.31ZM213.016 102.276C211.839 102.306 209.833 102.455 209.164 102.559C207.064 102.887 205.109 104.004 203.851 105.598C203.197 106.433 202.579 107.737 202.303 108.854C202.034 109.964 201.932 110.814 201.932 112.065C201.932 117.25 203.742 120.26 207.398 121.147C209.092 121.556 211.599 121.743 215.451 121.743C218.431 121.743 220.176 121.653 221.811 121.437C223.33 121.236 224.188 120.998 225.082 120.551C226.267 119.955 227.052 119.195 227.735 117.973C228.985 115.73 229.334 111.477 228.505 108.549C227.684 105.636 225.511 103.512 222.574 102.738C221.135 102.358 217.014 102.157 213.016 102.276ZM216.265 107.297C217.523 107.573 218.395 108.526 218.809 110.083C218.94 110.59 218.962 110.873 218.962 112.02C218.962 113.145 218.94 113.451 218.809 113.928C218.38 115.552 217.428 116.543 216.105 116.744C214.39 117.004 213.031 116.297 212.355 114.784C212.006 114.002 211.868 113.071 211.912 111.722C211.955 110.404 212.079 109.808 212.479 108.988C212.893 108.154 213.743 107.461 214.579 107.297C215.052 107.2 215.822 107.2 216.265 107.297Z" fill="#005BAB"/>
</svg>
