<svg width="300" height="205" viewBox="0 0 300 205" fill="none" xmlns="http://www.w3.org/2000/svg">
<g filter="url(#filter0_b_267_983)">
<rect width="300" height="205" rx="10" fill="white" fill-opacity="0.1"/>
<path d="M230.769 112.984C228.846 112.491 228.365 111.505 228.125 109.534C227.644 106.331 227.644 98.4465 228.125 94.997C228.365 93.2722 229.327 92.2866 230.769 91.7939C232.452 91.3011 247.836 91.0547 249.519 91.7939C250.961 92.2866 251.442 93.2722 251.682 94.7506C252.404 97.9537 252.404 106.085 251.682 109.288C251.442 110.766 250.961 111.505 249.519 112.245C248.077 113.476 232.932 113.476 230.769 112.984ZM254.567 80.9526C250 79.967 232.452 79.7206 225.481 80.9526C220.192 81.9381 216.106 85.8805 214.904 90.8083C213.942 96.4754 213.942 109.042 214.904 114.216C215.865 118.897 219.711 123.086 225.481 124.072C231.49 125.303 249.279 125.057 254.808 123.825C261.298 122.347 263.942 117.419 264.663 114.216C265.625 109.288 265.625 96.7218 264.663 90.8083C263.461 85.6341 259.134 81.9381 254.567 80.9526ZM194.231 81.199H207.452V123.825H194.231L194.231 81.199ZM173.077 107.563C175.24 108.056 175.721 109.781 175.721 111.259C175.721 112.737 175.481 114.462 173.077 114.709C170.433 115.201 161.538 115.201 158.173 114.709C156.731 114.462 155.048 114.462 154.567 111.752V111.013H141.346C141.346 111.259 141.346 111.998 141.586 112.984C142.067 118.651 144.231 122.593 150.481 123.825C155.529 124.811 174.519 125.057 180.288 123.825C187.019 122.347 188.702 116.187 188.702 110.766C188.702 104.606 186.538 100.418 181.25 98.6929C179.808 98.2001 176.442 97.9537 175 97.9537C173.798 97.9537 159.615 97.4609 156.49 96.9682C154.567 96.7217 154.086 95.4898 154.086 93.765C154.086 92.0402 154.327 90.8083 156.731 90.3155C159.615 89.8227 170.913 89.8227 172.115 90.3155C173.557 90.8083 174.038 91.7939 174.038 93.0258V94.0114H187.259C187.259 93.0258 187.019 92.2866 187.019 91.5475C186.298 84.8948 182.692 81.1989 176.202 80.7062C169.711 79.9669 154.808 80.2133 150.24 80.9525C145.913 81.9381 141.586 84.6484 141.586 93.765C141.586 101.157 144.952 104.853 150.721 106.085C152.404 106.331 157.211 106.578 157.932 106.578C159.615 106.824 172.115 107.317 173.077 107.563ZM120.913 107.317H106.25L112.5 90.3155H114.663L120.913 107.317ZM123.798 116.187L126.683 123.825H140.865L123.077 80.9525H103.846L86.2979 123.825H100.481L103.365 115.94L123.798 116.187ZM48.3172 109.781C48.5575 112.245 49.7594 112.737 50.9613 112.984C52.8845 113.477 66.5864 113.477 68.9902 112.984C70.6729 112.737 71.8748 111.505 72.1152 110.027C72.1152 109.288 72.3556 108.056 72.3556 107.563H86.0575C86.0575 108.549 86.0575 111.013 85.8172 113.23C85.096 118.404 82.2114 122.593 75.9614 124.072C71.6345 125.057 50.721 125.057 45.9133 124.072C40.8652 122.84 36.5383 119.636 35.3364 114.216C34.3748 109.288 34.3748 96.4753 35.3364 91.0546C36.0575 87.1123 39.6633 82.4308 45.6729 81.1988C51.2018 80.2132 70.6729 79.9669 75.9614 81.1988C82.9325 82.9236 85.096 89.3298 85.3364 91.5474C85.5767 94.0114 85.5767 95.736 85.5767 96.7216H71.8748C71.8748 95.7361 72.1152 93.0258 69.7113 92.2865C68.269 91.7938 54.8075 91.7938 51.4422 92.0402C49.7594 92.2865 48.7979 93.0258 48.5575 94.7505C47.8364 98.2 47.8364 106.578 48.3172 109.781Z" fill="#B2B2B2"/>
</g>
<defs>
<filter id="filter0_b_267_983" x="-50" y="-50" width="400" height="305" filterUnits="userSpaceOnUse" color-interpolation-filters="sRGB">
<feFlood flood-opacity="0" result="BackgroundImageFix"/>
<feGaussianBlur in="BackgroundImageFix" stdDeviation="25"/>
<feComposite in2="SourceAlpha" operator="in" result="effect1_backgroundBlur_267_983"/>
<feBlend mode="normal" in="SourceGraphic" in2="effect1_backgroundBlur_267_983" result="shape"/>
</filter>
</defs>
</svg>
