<svg width="300" height="205" viewBox="0 0 300 205" fill="none" xmlns="http://www.w3.org/2000/svg">
<g filter="url(#filter0_b_267_989)">
<rect width="300" height="205" rx="10" fill="white" fill-opacity="0.1"/>
<path d="M116.828 123.322C108.469 123.322 100.709 120.752 95.529 115.987C91.6157 112.387 89.7353 107.496 89.7353 102.463C89.7353 97.4909 91.6968 92.5668 95.5286 88.9855C100.339 84.4917 108.832 81.6775 116.828 81.6775C125.677 81.6775 132.76 83.9621 138.174 88.9978C142.026 92.5811 143.889 97.4833 143.889 102.463C143.889 107.291 141.912 112.431 138.174 115.987C133.132 120.783 125.209 123.322 116.828 123.322V117.829C121.265 117.829 125.381 116.259 128.256 113.328C131.11 110.416 132.44 106.837 132.44 102.463C132.44 98.2727 131.005 94.3551 128.256 91.5765C125.42 88.7133 121.206 87.1022 116.828 87.1022C112.438 87.1022 108.221 88.6967 105.383 91.5765C102.648 94.3541 101.209 98.2832 101.209 102.463C101.209 106.63 102.664 110.557 105.383 113.328C108.223 116.224 112.425 117.829 116.828 117.829V123.322ZM55.7283 81.6974C51.2566 81.6974 46.1764 82.5548 41.8599 84.5307C37.8761 86.3527 34.6152 89.2994 34.6152 94.1846C34.6134 98.5843 37.3414 101.161 37.2672 101.09C38.4276 102.185 40.2955 104.049 45.1792 105.144C47.3618 105.633 52.0281 106.384 56.675 106.882C61.2876 107.381 65.827 107.855 67.6759 108.335C69.1449 108.718 71.6124 109.24 71.6124 112.077C71.6124 114.904 69.0128 115.766 68.561 115.953C68.1097 116.136 64.991 117.603 59.3849 117.603C55.2459 117.603 50.27 116.327 48.4563 115.662C46.3655 114.899 44.1722 113.89 42.1264 111.329C41.6176 110.694 40.815 108.947 40.815 107.218H35.7413V121.79H41.3808V119.821C41.3808 119.597 41.6542 118.675 42.6009 119.114C43.7788 119.662 47.2366 121.073 50.852 121.847C53.8163 122.483 55.7278 122.938 59.4132 122.938C65.4262 122.938 68.6565 121.934 70.8896 121.281C72.9934 120.663 75.593 119.555 77.7047 117.828C78.8483 116.895 81.3562 114.503 81.3562 110.16C81.3562 105.992 79.1736 103.404 78.4058 102.617C77.3599 101.545 76.0823 100.714 74.751 100.073C73.5911 99.5133 71.7607 98.8413 70.2631 98.4655C67.3562 97.7341 60.7834 96.8316 57.6403 96.4944C54.3442 96.1415 48.6264 95.6561 46.3428 94.9317C45.6505 94.7118 44.239 94.0226 44.239 92.3431C44.239 91.1485 44.8845 90.1359 46.1602 89.3175C48.1852 88.017 52.2756 87.2086 56.5392 87.2086C61.58 87.1896 65.8488 88.3709 68.5643 89.6153C69.4878 90.038 70.5684 90.6451 71.4266 91.3632C72.3951 92.1726 73.7547 93.8545 74.2464 96.2004H78.8015V83.5157H73.7153V84.99C73.7153 85.4659 73.2357 86.0843 72.3289 85.5733C70.0527 84.3492 63.6171 81.7084 55.7274 81.6974M167.19 84.0025L192.001 106.953L191.746 91.501C191.721 89.4747 191.357 88.6288 189.219 88.6288H184.554V84.0063H205.768V88.6288H201.217C199.036 88.6288 198.899 89.3436 198.872 91.501L199.257 121.027H191.992L163.415 94.8842L163.421 113.438C163.446 115.455 163.538 116.404 165.565 116.404H170.66V121.025H149.826V116.405H154.696C156.516 116.405 156.443 114.627 156.443 113.333V91.6767C156.443 90.2788 156.252 88.6321 153.396 88.6321H149.444V84.0025H167.19ZM230.009 116.396C230.208 116.396 231.093 116.37 231.265 116.316C231.755 116.159 232.087 115.801 232.241 115.428C232.306 115.271 232.338 114.578 232.338 114.427L232.342 107.122C232.342 106.946 232.329 106.87 232.038 106.479C231.719 106.051 219.042 91.3271 218.462 90.6788C217.742 89.8737 216.477 88.6293 214.555 88.6293H210.146V84.0049H235.024V88.6236H232.025C231.332 88.6236 230.871 89.298 231.463 90.0475C231.463 90.0475 239.833 100.31 239.913 100.418C239.991 100.527 240.057 100.553 240.164 100.453C240.269 100.351 248.744 90.1416 248.811 90.0608C249.214 89.5659 248.941 88.6288 248.072 88.6288H244.995V84.0049H265.384V88.6288H260.829C259.177 88.6288 258.504 88.9423 257.261 90.3829C256.693 91.0421 243.881 106.031 243.533 106.437C243.35 106.649 243.366 106.945 243.366 107.121V114.425C243.366 114.573 243.398 115.268 243.463 115.424C243.618 115.799 243.952 116.157 244.441 116.312C244.612 116.366 245.485 116.393 245.684 116.393H250.344V121.016H225.594V116.392L230.01 116.396H230.009Z" fill="#B2B2B2"/>
</g>
<defs>
<filter id="filter0_b_267_989" x="-50" y="-50" width="400" height="305" filterUnits="userSpaceOnUse" color-interpolation-filters="sRGB">
<feFlood flood-opacity="0" result="BackgroundImageFix"/>
<feGaussianBlur in="BackgroundImageFix" stdDeviation="25"/>
<feComposite in2="SourceAlpha" operator="in" result="effect1_backgroundBlur_267_989"/>
<feBlend mode="normal" in="SourceGraphic" in2="effect1_backgroundBlur_267_989" result="shape"/>
</filter>
</defs>
</svg>
