<svg width="300" height="205" viewBox="0 0 300 205" fill="none" xmlns="http://www.w3.org/2000/svg">
<rect width="300" height="205" rx="10" fill="white"/>
<path d="M116.829 123.322C108.469 123.322 100.709 120.752 95.5293 115.987C91.6159 112.387 89.7355 107.496 89.7355 102.463C89.7355 97.4909 91.697 92.5668 95.5288 88.9855C100.339 84.4917 108.832 81.6775 116.829 81.6775C125.678 81.6775 132.76 83.9621 138.174 88.9978C142.027 92.5811 143.889 97.4833 143.889 102.463C143.889 107.291 141.913 112.431 138.174 115.987C133.133 120.783 125.21 123.322 116.829 123.322V117.829C121.266 117.829 125.381 116.259 128.256 113.328C131.11 110.416 132.44 106.837 132.44 102.463C132.44 98.2727 131.006 94.3551 128.256 91.5765C125.42 88.7133 121.206 87.1022 116.829 87.1022C112.438 87.1022 108.221 88.6967 105.383 91.5765C102.648 94.3541 101.21 98.2832 101.21 102.463C101.21 106.63 102.665 110.557 105.383 113.328C108.223 116.224 112.425 117.829 116.829 117.829V123.322ZM55.7285 81.6974C51.2568 81.6974 46.1766 82.5548 41.8602 84.5307C37.8764 86.3527 34.6155 89.2994 34.6155 94.1846C34.6136 98.5843 37.3416 101.161 37.2675 101.09C38.4278 102.185 40.2957 104.049 45.1794 105.144C47.362 105.633 52.0284 106.384 56.6753 106.882C61.2879 107.381 65.8272 107.855 67.6762 108.335C69.1451 108.718 71.6127 109.24 71.6127 112.077C71.6127 114.904 69.0131 115.766 68.5613 115.953C68.1099 116.136 64.9913 117.603 59.3852 117.603C55.2462 117.603 50.2703 116.327 48.4565 115.662C46.3657 114.899 44.1725 113.89 42.1266 111.329C41.6178 110.694 40.8152 108.947 40.8152 107.218H35.7415V121.79H41.381V119.821C41.381 119.597 41.6544 118.675 42.6011 119.114C43.7791 119.662 47.2369 121.073 50.8523 121.847C53.8166 122.483 55.7281 122.938 59.4134 122.938C65.4264 122.938 68.6567 121.934 70.8898 121.281C72.9936 120.663 75.5932 119.555 77.7049 117.828C78.8486 116.895 81.3564 114.503 81.3564 110.16C81.3564 105.992 79.1739 103.404 78.406 102.617C77.3601 101.545 76.0826 100.714 74.7513 100.073C73.5914 99.5133 71.761 98.8413 70.2633 98.4655C67.3564 97.7341 60.7837 96.8316 57.6405 96.4944C54.3444 96.1415 48.6266 95.6561 46.343 94.9317C45.6507 94.7118 44.2392 94.0226 44.2392 92.3431C44.2392 91.1485 44.8847 90.1359 46.1604 89.3175C48.1855 88.017 52.2758 87.2086 56.5395 87.2086C61.5803 87.1896 65.849 88.3709 68.5645 89.6153C69.488 90.038 70.5687 90.6451 71.4269 91.3632C72.3954 92.1726 73.755 93.8545 74.2466 96.2004H78.8018V83.5157H73.7156V84.99C73.7156 85.4659 73.236 86.0843 72.3291 85.5733C70.0529 84.3492 63.6173 81.7084 55.7276 81.6974M167.19 84.0025L192.001 106.953L191.746 91.501C191.721 89.4747 191.357 88.6288 189.219 88.6288H184.554V84.0063H205.768V88.6288H201.217C199.037 88.6288 198.899 89.3436 198.873 91.501L199.257 121.027H191.992L163.415 94.8842L163.421 113.438C163.446 115.455 163.538 116.404 165.565 116.404H170.66V121.025H149.826V116.405H154.697C156.516 116.405 156.444 114.627 156.444 113.333V91.6767C156.444 90.2788 156.252 88.6321 153.396 88.6321H149.444V84.0025H167.19ZM230.009 116.396C230.209 116.396 231.094 116.37 231.265 116.316C231.755 116.159 232.087 115.801 232.241 115.428C232.306 115.271 232.338 114.578 232.338 114.427L232.342 107.122C232.342 106.946 232.33 106.87 232.039 106.479C231.719 106.051 219.043 91.3271 218.463 90.6788C217.742 89.8737 216.477 88.6293 214.555 88.6293H210.147V84.0049H235.025V88.6236H232.026C231.332 88.6236 230.871 89.298 231.463 90.0475C231.463 90.0475 239.834 100.31 239.913 100.418C239.991 100.527 240.058 100.553 240.164 100.453C240.269 100.351 248.744 90.1416 248.811 90.0608C249.214 89.5659 248.941 88.6288 248.072 88.6288H244.995V84.0049H265.385V88.6288H260.83C259.177 88.6288 258.505 88.9423 257.261 90.3829C256.693 91.0421 243.881 106.031 243.533 106.437C243.35 106.649 243.366 106.945 243.366 107.121V114.425C243.366 114.573 243.399 115.268 243.463 115.424C243.618 115.799 243.952 116.157 244.441 116.312C244.613 116.366 245.486 116.393 245.685 116.393H250.344V121.016H225.594V116.392L230.01 116.396H230.009Z" fill="black"/>
</svg>
