<svg width="300" height="205" viewBox="0 0 300 205" fill="none" xmlns="http://www.w3.org/2000/svg">
<g filter="url(#filter0_b_268_1007)">
<rect width="300" height="205" rx="10" fill="white" fill-opacity="0.1"/>
<path d="M87.1751 77.6488H34.6169V127.351L87.1751 77.6488Z" fill="#B2B2B2"/>
<path d="M60.8911 77.6488H34.6155V102.512L60.8911 77.6488Z" fill="#B2B2B2"/>
<path d="M160.567 88.4367L153.706 116.553H165.828L172.683 88.4367H160.567ZM132.882 104.732H130.102L134.585 96.6212L136.038 104.732H132.882ZM131.158 88.4339L115.568 116.549H123.585L126.173 111.862H137.303L138.132 116.549H149.965L144.935 88.4339H131.158ZM215.925 88.4367L209.082 116.553H221.201L228.045 88.4367H215.925ZM210.508 88.4367H198.087L187.69 97.6339L189.959 88.4367H178.341L171.499 116.553H183.08L185.446 106.847L191.639 116.553H205.658L195.275 101.828L210.508 88.4367ZM106.057 101.214C106.057 101.214 105.269 110.346 97.6774 110.346H93.3818L97.1651 95.1813H101.064C102.458 95.1901 106.496 95.5611 106.057 101.214ZM105.442 88.4497L102.307 88.4396H87.1399L80.2974 116.544H95.3577L101.316 116.553C109.705 116.553 117.961 110.152 117.961 100.348C117.961 88.8122 105.442 88.4497 105.442 88.4497ZM256.994 88.4324L252.951 104.988L247.565 88.4324H234.085L227.237 116.553H235.619L239.701 99.8519L245.104 116.553H258.526L265.385 88.4324H256.994Z" fill="#B2B2B2"/>
</g>
<defs>
<filter id="filter0_b_268_1007" x="-50" y="-50" width="400" height="305" filterUnits="userSpaceOnUse" color-interpolation-filters="sRGB">
<feFlood flood-opacity="0" result="BackgroundImageFix"/>
<feGaussianBlur in="BackgroundImageFix" stdDeviation="25"/>
<feComposite in2="SourceAlpha" operator="in" result="effect1_backgroundBlur_268_1007"/>
<feBlend mode="normal" in="SourceGraphic" in2="effect1_backgroundBlur_268_1007" result="shape"/>
</filter>
</defs>
</svg>
