<svg width="307" height="205" viewBox="0 0 307 205" fill="none" xmlns="http://www.w3.org/2000/svg">
<g filter="url(#filter0_b_267_992)">
<rect y="0.39209" width="306.588" height="204.392" rx="10" fill="white" fill-opacity="0.1"/>
<path d="M131.513 127.013C137.461 127.013 142.268 123.842 142.268 120.501V102.538H132.916V118.911C132.916 120.069 131.75 121.012 130.303 121.012C128.862 121.012 127.69 120.069 127.69 118.911V102.539H118.34V120.501C118.34 123.842 123.154 127.013 129.097 127.013H131.513ZM217.98 127.013C223.909 127.013 228.725 123.842 228.725 120.501V102.512H219.38V118.911C219.38 120.069 218.213 121.012 216.764 121.012C215.325 121.012 214.151 120.069 214.151 118.911V102.512H204.811V120.501C204.811 123.842 209.619 127.013 215.557 127.013H217.98ZM162.522 98.1478H167.797C169.904 98.1478 171.611 96.4351 171.611 94.3304V90.7447H162.522V98.1478ZM171.61 102.527H162.52V126.436H171.61V102.527ZM259.6 121.339C257.315 121.339 257.183 119.939 257.168 119.506V119.355C257.168 117.946 258.735 117.068 259.692 116.949C260.143 116.891 261.102 116.877 261.94 116.8V119.429C261.94 120.241 262.251 121.339 259.6 121.339ZM271.213 106.908C271.213 104.23 268.303 102.975 265.155 102.465C262.539 102.043 260.663 101.988 258.323 101.988C255.984 101.988 252.233 102.574 251.215 102.93V108.359C253.599 107.952 259.253 107.571 260.71 107.797C261.807 107.971 261.865 109.152 261.865 109.614C261.865 110.077 261.859 111.598 260.591 111.833C259.532 112.031 254.748 112.606 252.323 113.169C249.894 113.731 248.069 115.313 248.069 119.091V120.397C248.069 121.045 248.072 123.988 250.409 125.509C252.758 127.024 256.222 127.188 259.406 127.188C263.041 127.188 265.814 126.903 267.408 126.434C268.616 126.057 271.213 125.509 271.213 121.633V106.908ZM116.419 90.7444H95.3793C91.7295 90.7444 88.7788 93.695 88.7788 97.343V126.428H99.649V111.597H113.945V104.332H99.649V100.222C99.649 98.8258 100.785 97.6915 102.178 97.6915H116.419V90.7444ZM156.996 90.7444V94.0022C156.996 96.301 155.166 98.1644 152.915 98.1644H147.537V90.7444H156.996ZM142.321 128.545H145.372C146.57 128.545 147.539 127.576 147.539 126.376V102.531H156.996V126.629C156.996 130.275 154.043 133.237 150.395 133.237H142.321V128.545ZM195.372 111.861H193.375L202.502 102.51H192.252L186.336 108.196V90.733H177.152V126.428H186.336V115.724H189.929C190.943 115.724 191.768 116.547 191.768 117.566V126.435H201.078V117.566C201.078 114.412 198.527 111.861 195.372 111.861ZM241.98 110.328C241.98 109.164 242.922 108.254 244.09 108.21C244.802 108.19 246.948 108.273 248.068 108.416V102.552C244.218 101.992 240.845 102.271 239.743 102.339C235.86 102.588 233.186 105.286 233.186 108.904V126.433H241.98V110.328Z" fill="#B2B2B2"/>
<path d="M48.7592 126.171C51.1258 126.171 53.1514 124.653 53.9126 122.54L59.8479 106.172H70.4355C75.1272 106.172 78.922 102.377 78.922 97.6798V90.5631H55.2466C50.9939 90.5631 47.363 93.2556 45.9838 97.0298L35.3755 126.171L48.7592 126.171Z" fill="#B2B2B2"/>
<path d="M49.6222 71.9397C41.7573 71.9397 35.3755 78.3141 35.3755 86.1807V113.355L41.8591 95.5585C43.8508 90.0868 49.0908 86.1807 55.2466 86.1807H74.5487C79.2348 86.1807 83.0372 82.3802 83.0372 77.6903V71.9397H49.6222Z" fill="#B2B2B2"/>
</g>
<defs>
<filter id="filter0_b_267_992" x="-50" y="-49.6079" width="406.588" height="304.392" filterUnits="userSpaceOnUse" color-interpolation-filters="sRGB">
<feFlood flood-opacity="0" result="BackgroundImageFix"/>
<feGaussianBlur in="BackgroundImageFix" stdDeviation="25"/>
<feComposite in2="SourceAlpha" operator="in" result="effect1_backgroundBlur_267_992"/>
<feBlend mode="normal" in="SourceGraphic" in2="effect1_backgroundBlur_267_992" result="shape"/>
</filter>
</defs>
</svg>
