<svg width="300" height="205" viewBox="0 0 300 205" fill="none" xmlns="http://www.w3.org/2000/svg">
<g filter="url(#filter0_b_267_980)">
<g clip-path="url(#clip0_267_980)">
<rect width="300" height="205" rx="10" fill="white" fill-opacity="0.1"/>
<mask id="mask0_267_980" style="mask-type:luminance" maskUnits="userSpaceOnUse" x="-96" y="-51" width="487" height="353">
<path d="M-95.4214 -50.9119H390.515V301.272H-95.4214V-50.9119Z" fill="white"/>
</mask>
<g mask="url(#mask0_267_980)">
<path d="M112.901 81.6835H100.502V98.2314H87.5962V81.6835H75.198V123.316H87.5962V106.94H100.502V123.316H112.901V81.6835ZM156.029 114.951V81.6835H143.63V123.316H166.049L167.913 114.951H156.029ZM134.465 81.6835H122.066V123.316H134.465V81.6835ZM184.727 81.6835H172.335V123.316H184.727V81.6835ZM245.852 92.3092C245.852 90.0432 248.063 88.9961 251.624 88.9961C255.532 88.9961 259.78 89.8717 262.666 91.0963L261.65 82.0326C258.418 81.3345 255.532 80.8138 250.273 80.8138C240.253 80.8138 233.46 84.8665 233.46 93.3563C233.46 107.987 252.825 105.029 252.825 111.821C252.825 114.43 250.949 115.82 246.366 115.82C242.297 115.82 236.005 114.43 232.271 112.513L233.633 122.098C237.367 123.494 242.458 124.186 246.539 124.186C256.894 124.186 265.384 120.701 265.384 110.247C265.384 96.3204 245.852 98.9295 245.852 92.3092ZM210.88 113.389C222.418 113.389 229.725 107.289 229.725 96.6635C229.725 84.9967 221.916 80.8138 209.177 80.8138C204.254 80.8138 198.308 81.1629 194.066 81.6835V123.316H206.464V113.389H210.88ZM217.5 96.841C217.5 102.237 214.955 105.899 208.496 105.899H206.464V88.6943C207.186 88.6529 207.861 88.6529 208.496 88.6529C214.608 88.6529 217.5 91.611 217.5 96.841ZM51.429 113.389C62.9729 113.389 70.2745 107.289 70.2745 96.6635C70.2745 84.9967 62.465 80.8138 49.732 80.8138C44.8028 80.8138 38.8634 81.1629 34.6152 81.6835V123.316H47.0134V113.389H51.429ZM58.0552 96.841C58.0552 102.237 55.504 105.899 49.0509 105.899H47.0134V88.6943C47.7349 88.6529 48.416 88.6529 49.0509 88.6529C55.1635 88.6529 58.0552 91.611 58.0552 96.841Z" fill="#B2B2B2"/>
</g>
</g>
</g>
<defs>
<filter id="filter0_b_267_980" x="-50" y="-50" width="400" height="305" filterUnits="userSpaceOnUse" color-interpolation-filters="sRGB">
<feFlood flood-opacity="0" result="BackgroundImageFix"/>
<feGaussianBlur in="BackgroundImageFix" stdDeviation="25"/>
<feComposite in2="SourceAlpha" operator="in" result="effect1_backgroundBlur_267_980"/>
<feBlend mode="normal" in="SourceGraphic" in2="effect1_backgroundBlur_267_980" result="shape"/>
</filter>
<clipPath id="clip0_267_980">
<rect width="300" height="205" rx="10" fill="white"/>
</clipPath>
</defs>
</svg>
