<svg width="300" height="205" viewBox="0 0 300 205" fill="none" xmlns="http://www.w3.org/2000/svg">
<rect width="300" height="205" rx="10" fill="white"/>
<path d="M255.418 119.896H265.385L255.101 85.1071L240.938 85.1065L230.654 119.895H240.623L242.44 113.456H253.592L255.418 119.895M244.598 105.72L247.99 93.7005H248.048L251.44 105.72H244.598ZM84.3693 120.52C94.6039 120.52 99.5511 118.672 100.252 109.206C100.419 106.953 100.451 104.641 100.451 102.497C100.454 100.361 100.419 98.0463 100.252 95.7942C99.5511 86.3252 94.6039 84.4802 84.3693 84.4802C74.1347 84.4802 69.1905 86.3252 68.4924 95.7942C68.3222 98.0463 68.2876 100.361 68.2876 102.497C68.2905 104.641 68.3222 106.953 68.4924 109.206C69.1905 118.672 74.1347 120.52 84.3693 120.52ZM77.9337 102.497C77.9337 100.587 77.9799 99.4578 78.0203 98.6199C78.2799 93.2502 80.3482 92.6242 84.3693 92.6242C88.3934 92.6242 90.4616 93.2502 90.7184 98.6199C90.7587 99.4575 90.8078 100.587 90.8078 102.497C90.8078 104.414 90.7587 105.545 90.7184 106.381C90.4616 111.752 88.3934 112.379 84.3693 112.379C80.3482 112.379 78.2799 111.752 78.0203 106.381C77.9799 105.545 77.9337 104.414 77.9337 102.497ZM34.6155 85.1224V93.7948H44.7612V119.911H54.9108V93.7948H65.0568V85.1224H34.6155ZM190.341 119.896V85.1065H180.71V119.896H190.341ZM151.587 97.8083V85.1065H142.01V119.896H151.587V106.481H162.715V119.896H172.29V85.1065H162.715V97.8083H151.587ZM222.02 101.713C226.287 100.595 227.539 97.9827 227.539 94.207C227.539 86.5612 222.845 85.1062 216.173 85.1062H198.88V119.895H217.03C225.387 119.895 228.196 116.205 228.196 110.53C228.196 106.573 227.314 103.081 222.02 101.712M208.454 105.606H215.094C217.777 105.606 218.337 106.81 218.337 108.769C218.337 110.73 217.287 111.938 215.094 111.938H208.454V105.606ZM208.454 93.0618H215.094C216.828 93.0618 217.901 93.9048 217.901 95.9322C217.901 97.6702 216.84 98.7399 215.094 98.7399H208.454V93.0618ZM106.033 108.479H115.163C115.171 110.167 115.382 111.295 116.181 111.918C117.09 112.62 117.903 112.852 120.6 112.852C123.196 112.852 126.04 112.852 126.04 109.574C126.04 106.989 124.451 106.399 121.517 106.239C114.242 105.844 111.612 105.633 108.903 103.571C107.057 102.164 106.099 99.4259 106.099 95.7229C106.099 89.4259 108.242 87.217 111.335 85.6756C114.525 84.0846 127.047 84.0846 130.416 85.6756C134.654 87.6767 134.778 92.0089 134.778 96.0274H125.671C125.654 93.9787 125.204 93.4001 124.838 93.019C123.891 92.1592 122.544 91.9776 120.6 91.9776C118.246 91.9776 115.523 92.0864 115.523 95.0162C115.523 97.2515 116.466 98.1859 118.941 98.3502C122.342 98.5732 129.043 98.7929 131.432 100.238C134.781 102.268 135.649 105.015 135.649 109.498C135.649 115.975 133.388 117.876 130.24 119.302C126.609 120.946 114.479 120.946 110.536 119.175C106.122 117.202 106.033 113.272 106.033 108.479Z" fill="#FF0000"/>
</svg>
