<svg width="300" height="205" viewBox="0 0 300 205" fill="none" xmlns="http://www.w3.org/2000/svg">
<g filter="url(#filter0_b_267_986)">
<rect width="300" height="205" rx="10" fill="white" fill-opacity="0.1"/>
<path d="M78.952 83.3304C77.7527 83.5911 76.6988 84.1946 75.8484 85.1109C74.6928 86.3625 74.1477 87.8973 74.2494 89.6182C74.3075 90.5048 74.4457 91.0486 74.809 91.8383C75.3833 93.0601 76.2772 93.9913 77.462 94.5948C78.3633 95.0493 79.0683 95.2206 80.0713 95.2206C82.9132 95.2206 85.2028 93.3283 85.8278 90.4824C85.995 89.7001 85.9369 88.2474 85.7116 87.5098C85.3481 86.3178 84.6358 85.2524 83.72 84.5224C83.1531 84.0604 82.2591 83.5911 81.605 83.4123C81.0017 83.2484 79.548 83.2037 78.952 83.3304ZM162.167 83.3304C160.997 83.5837 160.045 84.1201 159.158 85.0438C158.417 85.8112 157.944 86.6307 157.668 87.6216C157.036 89.9609 157.864 92.5237 159.732 93.9913C160.793 94.8183 161.956 95.2206 163.294 95.2206C164.907 95.2206 166.23 94.6917 167.357 93.5891C168.374 92.5982 168.985 91.3391 169.145 89.9088C169.319 88.3666 168.898 86.8318 167.967 85.5728C167.226 84.582 166.012 83.7401 164.827 83.4123C164.231 83.2484 162.778 83.2037 162.167 83.3304ZM118.056 85.3493V87.2491H118.841C119.814 87.2491 120.163 87.3981 120.432 87.9196L120.599 88.2399V101.881C120.599 110.605 120.57 115.619 120.527 115.783C120.44 116.118 120.054 116.505 119.72 116.602C119.589 116.647 119.153 116.677 118.768 116.677H118.056V121.743H135.136V116.692L134.104 116.662C133.225 116.647 133.028 116.617 132.818 116.49C132.483 116.289 132.294 116.014 132.222 115.626C132.134 115.164 132.142 110.046 132.229 109.428C132.425 108.027 133.479 106.977 134.911 106.746C135.558 106.649 136.277 106.768 136.881 107.074C137.447 107.364 138.116 108.102 138.349 108.683L138.516 109.115L138.538 115.425L138.56 121.743H152.58V116.677H151.366C149.745 116.669 149.455 116.595 149.062 116.051C148.91 115.85 148.91 115.745 148.866 110.918C148.822 105.509 148.83 105.636 148.364 104.682C147.638 103.214 146.075 102.239 143.844 101.881C142.753 101.702 139.599 101.769 138.61 101.993C137.6 102.216 136.575 102.604 135.209 103.267C133.886 103.907 133.595 104.012 133.079 104.012C132.629 104.012 132.338 103.855 132.236 103.557C132.178 103.386 132.156 100.465 132.156 93.3879V83.4496H118.056V85.3493ZM34.6152 104.31V106.843H36.3451C37.29 106.843 38.184 106.872 38.3148 106.917C38.6492 107.014 39.0344 107.401 39.1216 107.737C39.1652 107.893 39.1943 109.525 39.1943 111.797C39.1943 115.328 39.1797 115.619 39.0562 115.894C38.7364 116.61 38.5038 116.677 36.3596 116.677H34.6152V121.743H52.7133V116.677H51.6449C51.0489 116.677 50.4529 116.639 50.3148 116.602C50.0168 116.52 49.6316 116.148 49.5226 115.835C49.4208 115.559 49.4135 109.771 49.5153 109.234C49.8133 107.617 51.4777 106.478 53.1204 106.753C54.1888 106.932 55.1119 107.625 55.5407 108.556L55.7297 108.966L55.7515 115.351L55.766 121.743H69.5759V116.677H68.5075C66.9884 116.669 66.545 116.535 66.247 115.984C66.138 115.768 66.1235 115.306 66.0871 110.754C66.0508 105.919 66.0435 105.747 65.8981 105.353C65.5929 104.526 65.3385 104.123 64.7861 103.565C64.35 103.118 64.0883 102.931 63.5432 102.656C62.1695 101.963 61.1883 101.777 58.9351 101.777C56.0859 101.777 54.9739 102.03 52.4299 103.274C51.2089 103.87 50.8018 104.012 50.2567 104.012C49.9224 104.012 49.8351 103.982 49.6534 103.796C49.4426 103.58 49.4426 103.572 49.4426 102.678V101.777H34.6152V104.31ZM72.0471 104.31V106.843H73.5953C75.3324 106.843 75.5795 106.902 75.9066 107.372L76.081 107.625V115.894L75.9138 116.14C75.5868 116.61 75.4559 116.639 73.6679 116.662L72.0471 116.684V121.743H88.9823V116.692L88.1319 116.669C87.4341 116.647 87.2306 116.61 87.0271 116.49C86.6928 116.289 86.5038 116.014 86.4311 115.626C86.4021 115.447 86.373 112.259 86.3657 108.534V101.777H72.0471V104.31ZM109.028 102.753C109.006 103.684 108.999 103.736 108.825 103.878C108.527 104.123 108.105 104.026 106.957 103.468C105.082 102.544 103.781 102.224 101.716 102.164C100.205 102.127 99.376 102.231 98.2131 102.611C96.8103 103.066 95.9889 103.58 94.9205 104.667C94.121 105.472 93.4814 106.366 93.0162 107.327C92.2385 108.944 91.9405 110.225 91.9332 112.058C91.9259 113.421 92.0204 114.047 92.4129 115.187C93.1979 117.466 94.8042 119.269 97.0138 120.364C98.9981 121.348 100.873 121.705 103.919 121.698C105.481 121.698 105.99 121.668 106.862 121.527C111.202 120.849 114.08 119.187 115.315 116.639C115.759 115.738 115.955 114.971 116.064 113.786L116.115 113.25H109.348L109.261 113.734C109.065 114.814 108.41 115.76 107.618 116.133C106.339 116.729 104.776 116.431 103.853 115.41C103.076 114.546 102.734 113.496 102.669 111.752C102.596 109.867 102.959 108.534 103.781 107.722C104.885 106.634 106.921 106.619 108.091 107.699C108.527 108.102 108.883 108.899 108.956 109.599L109.007 110.158L112.553 110.18L116.093 110.195L116.079 106.008L116.057 101.814L112.553 101.792L109.057 101.777L109.028 102.753ZM155.269 104.31V106.843H156.818C158.162 106.843 158.395 106.865 158.656 106.984C159.042 107.163 159.238 107.431 159.332 107.893C159.441 108.4 159.441 115.12 159.332 115.634C159.238 116.096 158.904 116.476 158.504 116.595C158.337 116.639 157.595 116.677 156.745 116.677H155.269V121.743H172.277V116.692L171.391 116.662C170.148 116.625 169.821 116.409 169.661 115.552C169.617 115.313 169.588 112.579 169.588 108.474V101.777H155.269L155.269 104.31ZM192.192 102.745C192.192 103.617 192.178 103.729 192.047 103.863C191.771 104.146 191.059 103.989 190.056 103.416C189.43 103.065 188.086 102.596 187.068 102.373C186.152 102.171 184.001 102.09 183.093 102.216C181.712 102.417 180.294 102.939 179.335 103.594C178.216 104.362 176.922 105.889 176.246 107.245C175.512 108.713 175.199 110.001 175.134 111.76C175.076 113.466 175.33 114.74 176.02 116.17C177.496 119.225 180.287 121.013 184.488 121.609C185.535 121.75 188.66 121.735 189.787 121.571C195.267 120.782 198.451 118.465 199.141 114.762C199.199 114.457 199.243 113.987 199.243 113.726V113.25H192.556L192.52 113.451C192.294 114.531 192.018 115.127 191.495 115.634C191.022 116.096 190.644 116.274 189.918 116.394C188.493 116.617 187.09 115.88 186.465 114.576C186.051 113.704 185.927 113.123 185.891 111.715C185.862 110.709 185.876 110.314 185.971 109.815C186.298 108.124 187.228 107.103 188.602 106.925C190.303 106.709 191.742 107.625 192.076 109.145C192.142 109.435 192.192 109.785 192.192 109.927V110.195H199.243V101.777H192.193L192.192 102.745ZM230.497 104.31V106.843H232.263C234.24 106.843 234.458 106.895 234.792 107.372L234.967 107.625L234.988 111.67C235.01 116.222 235.025 116.066 234.472 116.438L234.182 116.639L232.335 116.662L230.497 116.684V121.743H248.595V116.692L247.381 116.662C246.022 116.639 245.811 116.572 245.491 116.096C245.266 115.745 245.237 115.269 245.266 112.132C245.295 109.554 245.309 109.301 245.44 108.884C245.818 107.729 246.763 106.947 248.013 106.746C249.263 106.552 250.623 107.2 251.255 108.295C251.647 108.988 251.647 108.973 251.647 115.611V121.743H265.384V116.677H264.352C262.848 116.669 262.543 116.58 262.157 116.051C262.005 115.85 262.005 115.745 261.961 110.918C261.917 105.539 261.925 105.628 261.481 104.727C260.747 103.214 259.192 102.246 256.939 101.881C255.848 101.702 252.694 101.769 251.706 101.993C250.695 102.216 249.67 102.604 248.304 103.267C246.988 103.907 246.69 104.012 246.182 104.012C245.426 104.012 245.251 103.736 245.251 102.566V101.777H230.497V104.31ZM213.016 102.276C211.839 102.306 209.833 102.455 209.164 102.559C207.063 102.887 205.108 104.004 203.851 105.598C203.197 106.433 202.579 107.737 202.303 108.854C202.034 109.964 201.932 110.814 201.932 112.065C201.932 117.25 203.742 120.26 207.398 121.147C209.091 121.556 211.599 121.743 215.451 121.743C218.431 121.743 220.176 121.653 221.811 121.437C223.33 121.236 224.188 120.998 225.082 120.551C226.266 119.955 227.051 119.195 227.735 117.973C228.985 115.73 229.334 111.477 228.505 108.549C227.684 105.636 225.51 103.512 222.574 102.738C221.135 102.358 217.014 102.157 213.016 102.276ZM216.265 107.297C217.523 107.573 218.395 108.526 218.809 110.083C218.94 110.59 218.962 110.873 218.962 112.02C218.962 113.145 218.94 113.451 218.809 113.928C218.38 115.552 217.428 116.543 216.105 116.744C214.39 117.004 213.031 116.297 212.355 114.784C212.006 114.002 211.868 113.071 211.911 111.722C211.955 110.404 212.079 109.808 212.478 108.988C212.893 108.154 213.743 107.461 214.579 107.297C215.051 107.2 215.822 107.2 216.265 107.297Z" fill="#B2B2B2"/>
</g>
<defs>
<filter id="filter0_b_267_986" x="-50" y="-50" width="400" height="305" filterUnits="userSpaceOnUse" color-interpolation-filters="sRGB">
<feFlood flood-opacity="0" result="BackgroundImageFix"/>
<feGaussianBlur in="BackgroundImageFix" stdDeviation="25"/>
<feComposite in2="SourceAlpha" operator="in" result="effect1_backgroundBlur_267_986"/>
<feBlend mode="normal" in="SourceGraphic" in2="effect1_backgroundBlur_267_986" result="shape"/>
</filter>
</defs>
</svg>
