<svg width="300" height="205" viewBox="0 0 300 205" fill="none" xmlns="http://www.w3.org/2000/svg">
<g filter="url(#filter0_b_267_972)">
<rect width="300" height="205" rx="10" fill="white" fill-opacity="0.1"/>
<path d="M255.418 119.896H265.384L255.101 85.1071L240.937 85.1065L230.654 119.895H240.623L242.44 113.456H253.592L255.418 119.895M244.598 105.72L247.99 93.7005H248.048L251.44 105.72H244.598ZM84.3691 120.52C94.6037 120.52 99.5508 118.672 100.252 109.206C100.419 106.953 100.451 104.641 100.451 102.497C100.454 100.361 100.419 98.0463 100.252 95.7942C99.5508 86.3252 94.6037 84.4802 84.3691 84.4802C74.1345 84.4802 69.1902 86.3252 68.4922 95.7942C68.322 98.0463 68.2873 100.361 68.2873 102.497C68.2902 104.641 68.322 106.953 68.4922 109.206C69.1902 118.672 74.1345 120.52 84.3691 120.52ZM77.9335 102.497C77.9335 100.587 77.9797 99.4578 78.02 98.6199C78.2797 93.2502 80.3479 92.6242 84.3691 92.6242C88.3931 92.6242 90.4614 93.2502 90.7181 98.6199C90.7585 99.4575 90.8075 100.587 90.8075 102.497C90.8075 104.414 90.7585 105.545 90.7181 106.381C90.4614 111.752 88.3931 112.379 84.3691 112.379C80.3479 112.379 78.2797 111.752 78.02 106.381C77.9797 105.545 77.9335 104.414 77.9335 102.497ZM34.6152 85.1224V93.7948H44.761V119.911H54.9105V93.7948H65.0566V85.1224H34.6152ZM190.341 119.896V85.1065H180.709V119.896H190.341ZM151.586 97.8083V85.1065H142.009V119.896H151.586V106.481H162.715V119.896H172.289V85.1065H162.715V97.8083H151.586ZM222.02 101.713C226.286 100.595 227.538 97.9827 227.538 94.207C227.538 86.5612 222.845 85.1062 216.173 85.1062H198.88V119.895H217.03C225.386 119.895 228.196 116.205 228.196 110.53C228.196 106.573 227.313 103.081 222.02 101.712M208.454 105.606H215.094C217.777 105.606 218.336 106.81 218.336 108.769C218.336 110.73 217.286 111.938 215.094 111.938H208.454V105.606ZM208.454 93.0618H215.094C216.828 93.0618 217.901 93.9048 217.901 95.9322C217.901 97.6702 216.839 98.7399 215.094 98.7399H208.454V93.0618ZM106.033 108.479H115.162C115.171 110.167 115.382 111.295 116.181 111.918C117.089 112.62 117.903 112.852 120.6 112.852C123.196 112.852 126.04 112.852 126.04 109.574C126.04 106.989 124.451 106.399 121.517 106.239C114.242 105.844 111.611 105.633 108.903 103.571C107.057 102.164 106.099 99.4259 106.099 95.7229C106.099 89.4259 108.242 87.217 111.334 85.6756C114.525 84.0846 127.047 84.0846 130.416 85.6756C134.654 87.6767 134.778 92.0089 134.778 96.0274H125.671C125.654 93.9787 125.204 93.4001 124.837 93.019C123.891 92.1592 122.544 91.9776 120.6 91.9776C118.246 91.9776 115.523 92.0864 115.523 95.0162C115.523 97.2515 116.466 98.1859 118.941 98.3502C122.342 98.5732 129.043 98.7929 131.432 100.238C134.781 102.268 135.649 105.015 135.649 109.498C135.649 115.975 133.387 117.876 130.24 119.302C126.609 120.946 114.479 120.946 110.535 119.175C106.122 117.202 106.033 113.272 106.033 108.479Z" fill="#B2B2B2"/>
</g>
<defs>
<filter id="filter0_b_267_972" x="-50" y="-50" width="400" height="305" filterUnits="userSpaceOnUse" color-interpolation-filters="sRGB">
<feFlood flood-opacity="0" result="BackgroundImageFix"/>
<feGaussianBlur in="BackgroundImageFix" stdDeviation="25"/>
<feComposite in2="SourceAlpha" operator="in" result="effect1_backgroundBlur_267_972"/>
<feBlend mode="normal" in="SourceGraphic" in2="effect1_backgroundBlur_267_972" result="shape"/>
</filter>
</defs>
</svg>
