<svg width="300" height="205" viewBox="0 0 300 205" fill="none" xmlns="http://www.w3.org/2000/svg">
<rect width="300" height="205" rx="10" fill="white"/>
<path d="M230.769 112.984C228.846 112.491 228.365 111.505 228.125 109.534C227.644 106.331 227.644 98.4465 228.125 94.997C228.365 93.2722 229.327 92.2866 230.769 91.7939C232.452 91.3011 247.837 91.0547 249.519 91.7939C250.962 92.2866 251.442 93.2722 251.683 94.7506C252.404 97.9537 252.404 106.085 251.683 109.288C251.442 110.766 250.962 111.505 249.519 112.245C248.077 113.476 232.933 113.476 230.769 112.984ZM254.567 80.9526C250 79.967 232.452 79.7206 225.481 80.9526C220.192 81.9381 216.106 85.8805 214.904 90.8083C213.942 96.4754 213.942 109.042 214.904 114.216C215.865 118.897 219.712 123.086 225.481 124.072C231.49 125.303 249.279 125.057 254.808 123.825C261.298 122.347 263.942 117.419 264.663 114.216C265.625 109.288 265.625 96.7218 264.663 90.8083C263.462 85.6341 259.135 81.9381 254.567 80.9526ZM194.231 81.199H207.452V123.825H194.231L194.231 81.199ZM173.077 107.563C175.24 108.056 175.721 109.781 175.721 111.259C175.721 112.737 175.481 114.462 173.077 114.709C170.433 115.201 161.539 115.201 158.173 114.709C156.731 114.462 155.048 114.462 154.567 111.752V111.013H141.346C141.346 111.259 141.346 111.998 141.587 112.984C142.067 118.651 144.231 122.593 150.481 123.825C155.529 124.811 174.519 125.057 180.289 123.825C187.019 122.347 188.702 116.187 188.702 110.766C188.702 104.606 186.538 100.418 181.25 98.6929C179.808 98.2001 176.442 97.9537 175 97.9537C173.798 97.9537 159.615 97.4609 156.49 96.9682C154.567 96.7217 154.087 95.4898 154.087 93.765C154.087 92.0402 154.327 90.8083 156.731 90.3155C159.615 89.8227 170.914 89.8227 172.115 90.3155C173.558 90.8083 174.039 91.7939 174.039 93.0258V94.0114H187.26C187.26 93.0258 187.019 92.2866 187.019 91.5475C186.298 84.8948 182.692 81.1989 176.202 80.7062C169.712 79.9669 154.808 80.2133 150.24 80.9525C145.914 81.9381 141.587 84.6484 141.587 93.765C141.587 101.157 144.952 104.853 150.721 106.085C152.404 106.331 157.212 106.578 157.933 106.578C159.615 106.824 172.115 107.317 173.077 107.563ZM120.914 107.317H106.25L112.5 90.3155H114.664L120.914 107.317ZM123.798 116.187L126.683 123.825H140.865L123.077 80.9525H103.846L86.2982 123.825H100.481L103.365 115.94L123.798 116.187ZM48.3174 109.781C48.5578 112.245 49.7597 112.737 50.9616 112.984C52.8847 113.477 66.5866 113.477 68.9905 112.984C70.6731 112.737 71.8751 111.505 72.1155 110.027C72.1155 109.288 72.3558 108.056 72.3558 107.563H86.0578C86.0578 108.549 86.0578 111.013 85.8174 113.23C85.0962 118.404 82.2116 122.593 75.9616 124.072C71.6347 125.057 50.7212 125.057 45.9135 124.072C40.8654 122.84 36.5385 119.636 35.3367 114.216C34.3751 109.288 34.3751 96.4753 35.3367 91.0546C36.0578 87.1123 39.6636 82.4308 45.6732 81.1988C51.202 80.2132 70.6731 79.9669 75.9616 81.1988C82.9327 82.9236 85.0962 89.3298 85.3366 91.5474C85.577 94.0114 85.577 95.736 85.577 96.7216H71.8751C71.8751 95.7361 72.1155 93.0258 69.7116 92.2865C68.2693 91.7938 54.8078 91.7938 51.4424 92.0402C49.7597 92.2865 48.7982 93.0258 48.5578 94.7505C47.8366 98.2 47.8367 106.578 48.3174 109.781Z" fill="#003296"/>
</svg>
