<svg width="300" height="205" viewBox="0 0 300 205" fill="none" xmlns="http://www.w3.org/2000/svg">
<rect width="300" height="205" rx="10" fill="white"/>
<path d="M132.38 74.0362C123.784 75.7408 116.052 81.8475 112.409 89.8115C111.544 91.6945 110.283 95.6127 110.283 96.4014C110.283 96.9614 110.026 97.0124 108.134 96.7833C107.153 96.6559 104.794 96.4271 102.878 96.2487C100.986 96.0959 99.2808 95.8418 99.1407 95.7147C98.9071 95.5109 98.837 93.0683 98.837 85.0532V74.6472H86.9243V84.9521C86.9243 92.9925 86.8542 95.2824 86.6441 95.3842C86.4802 95.4349 83.2334 95.5876 79.4495 95.7404C75.6654 95.8931 70.7833 96.1986 68.6344 96.4274C65.6213 96.7072 64.6166 96.7329 64.3597 96.5038C64.0796 96.2746 64.0328 94.3916 64.0328 85.4354V74.6472H52.1197L52.0729 86.6567L52.0029 98.692L47.6814 99.6332C45.3224 100.168 41.3979 101.109 38.9922 101.771C32.4983 103.526 32.7319 103.653 43.08 103.653C49.3635 103.653 51.6291 103.73 51.8393 103.959C52.0497 104.188 52.1194 107.444 52.1194 117.062V129.861H64.0328L64.0793 116.833L64.1493 103.78L75.2213 103.704C83.1869 103.679 86.3869 103.729 86.5973 103.933C86.8775 104.162 86.9243 106.528 86.9243 117.037V129.861H98.837L98.8838 116.833L98.9538 103.78H104.186C108.601 103.78 109.442 103.831 109.582 104.162C109.699 104.365 109.886 105.561 110.026 106.834C110.4 110.04 111.801 114.314 113.343 117.037C114.884 119.785 118.762 124.136 121.261 125.968C125.863 129.326 130.652 131.031 136.328 131.311C141.444 131.565 145.975 130.547 150.577 128.079C156.346 125.001 160.434 120.675 163.073 114.874C166.811 106.732 166.437 95.7657 162.209 88.0305C160.925 85.7149 157.257 81.3892 154.921 79.4555C151.768 76.8861 147.26 74.7996 143.125 74.0108C140.532 73.5272 134.926 73.5272 132.38 74.0362ZM141.537 84.9261C144.55 85.8169 148.101 88.2086 149.759 90.4732C154.057 96.3507 154.945 104.365 152.001 110.701C150.296 114.441 147.984 116.961 144.737 118.665C139.598 121.362 133.922 120.955 128.806 117.495C126.541 115.968 124.976 114.009 123.574 110.905C122.429 108.411 121.518 104.849 121.822 104.035C121.939 103.704 123.13 103.653 130.138 103.653C137.122 103.653 138.313 103.602 138.313 103.271C138.313 103.068 137.94 102.788 137.449 102.635C135.16 101.948 129.647 100.549 126.284 99.811C124.228 99.353 122.406 98.8698 122.242 98.6917C121.986 98.4372 122.032 98.1063 122.429 96.7579C123.364 93.7553 124.532 91.6945 126.517 89.5317C129.063 86.7328 131.983 85.1042 135.627 84.4682C136.772 84.2901 140.205 84.5443 141.537 84.9261ZM164.942 75.003C164.942 75.2065 168.633 81.084 173.165 88.0559C177.672 95.0277 181.971 101.694 182.742 102.864L184.097 105.002V129.861H196.71V105.154L206.287 90.3204C211.566 82.1529 215.864 75.2826 215.864 75.0541C215.864 74.6979 215.163 74.6468 209.557 74.6468H203.251L202.246 76.3515C201.686 77.3183 198.836 82.4074 195.892 87.6997C192.973 92.9919 190.497 97.2155 190.403 97.1141C190.31 97.0121 187.577 92.1014 184.33 86.2239C181.083 80.3463 178.28 75.3339 178.07 75.0794C177.743 74.6976 177.112 74.6468 171.319 74.6468C165.97 74.6468 164.942 74.6979 164.942 75.003ZM230.65 74.952C230.276 75.4866 209.324 129.072 209.324 129.479C209.324 129.81 210.165 129.861 215.818 129.861H222.311L224.18 124.212L226.072 118.538H247.025L249.174 124.136L251.323 129.733L258.354 129.81C263.796 129.861 265.385 129.81 265.385 129.555C265.385 129.199 243.334 76.0973 242.82 75.2065C242.493 74.6472 242.446 74.6472 236.676 74.6472C232.308 74.6472 230.814 74.7229 230.65 74.952ZM237.565 89.4299C237.962 91.0328 239.527 95.8671 241.045 100.218C242.587 104.544 243.778 108.182 243.731 108.284C243.568 108.589 230.16 108.538 229.996 108.233C229.903 108.08 231.164 104.111 232.753 99.3784C234.341 94.6715 235.836 89.9389 236.07 88.8956C236.56 86.5547 236.63 86.2492 236.77 86.4019C236.84 86.453 237.191 87.8267 237.565 89.4299Z" fill="#0044AA"/>
</svg>
