<svg width="307" height="205" viewBox="0 0 307 205" fill="none" xmlns="http://www.w3.org/2000/svg">
<rect width="306.588" height="204.392" rx="10" fill="white"/>
<path d="M238.084 116.679C238.566 116.701 238.855 117.124 238.855 117.547C238.855 118.022 238.422 118.324 238.192 118.4L238.796 119.699H238.263L237.628 118.373H236.909V119.699H236.352V116.679H238.084ZM236.908 117.955H237.987C238.282 117.872 238.309 117.716 238.318 117.517C238.326 117.322 238.138 117.102 237.949 117.102H236.908V117.955Z" fill="white"/>
<path d="M237.499 120.845C238.963 120.845 240.146 119.66 240.146 118.198C240.146 116.736 238.963 115.549 237.499 115.549C236.037 115.549 234.852 116.736 234.852 118.198C234.852 119.66 236.037 120.845 237.499 120.845ZM235.283 118.177C235.283 116.953 236.272 115.96 237.499 115.96C238.723 115.96 239.714 116.953 239.714 118.177C239.714 119.402 238.723 120.395 237.499 120.395C236.272 120.395 235.283 119.403 235.283 118.177Z" fill="white"/>
<path d="M266.328 121.391V120.031L150.85 117.052L35.3755 120.031V121.391L150.85 124.365L266.328 121.391Z" fill="#F6D900"/>
<path d="M86.3707 102.243H100.235V108.201H75.3445V81.7417H86.3707V102.243ZM215.08 109.262C206.488 109.262 199.26 106.705 199.26 99.6623V81.7417H209.931V98.8447C209.931 102.155 212.377 103.667 215.08 103.667C217.785 103.667 220.228 102.155 220.228 98.8447V81.7417H230.898V99.6623C230.898 106.705 223.675 109.262 215.08 109.262ZM253.256 88.7768H264.534C263.943 82.7 255.388 80.8851 248.759 80.8851C242.134 80.8851 233.502 83.0524 233.502 89.6815C233.502 94.5255 238.24 96.0747 241.565 96.7481C243.924 97.2238 247.857 97.8941 249.824 98.3273C252.561 98.9259 253.977 99.4824 253.977 101.096C253.977 102.821 252.386 103.703 249.119 103.703C246.022 103.703 244.172 102.74 243.657 100.556L232.165 100.558C232.84 107.766 242.075 109.342 249.364 109.342C256.698 109.342 265.462 107.596 265.462 100.453C265.462 96.5742 262.964 93.9932 256.815 92.7633C253.597 92.12 249.134 91.2816 247.419 90.9862C245.147 90.59 244.335 89.7712 244.335 88.6539C244.335 87.5023 245.439 86.2931 248.626 86.2931C251.32 86.2931 252.776 87.0794 253.256 88.7768ZM187.289 98.4595C195.228 98.4595 197.249 93.4099 197.249 90.1836C197.249 87.2139 195.54 81.7417 187.299 81.7417H165.955L165.956 108.201H176.433V98.4595H187.289ZM176.432 92.6825V87.5218H183.427C185.17 87.5218 186.66 88.336 186.66 90.0174C186.66 91.499 185.804 92.6825 183.414 92.6825H176.432ZM113.498 82.3863L113.799 81.7417H124.861L113.35 99.292V108.201H102.885V99.292L91.4114 81.7417H102.435L102.742 82.3863L107.73 91.1466C108.059 91.7089 108.158 91.7089 108.521 91.1466L113.498 82.3863ZM146.955 108.201L147.15 107.674L152.771 94.6019C152.917 94.2584 153.256 94.3502 153.26 94.6518V108.201H162.286V81.7416H151.378L151.177 82.3115L144.454 97.4891C144.206 98.065 143.975 98.0621 143.727 97.4891L137.007 82.3115L136.806 81.7417H125.897V108.201H134.927V94.6518C134.929 94.3502 135.267 94.2584 135.415 94.6019L141.03 107.674L141.229 108.201H146.955ZM72.8532 94.9727C72.8532 103.862 65.1444 109.214 54.3911 109.214C43.6378 109.214 35.929 103.862 35.929 94.9727C35.9289 86.079 43.6377 80.7291 54.391 80.7291C65.1443 80.7291 72.8532 86.0791 72.8532 94.9727ZM61.7534 94.9727C61.7534 89.6198 58.9834 86.3157 54.3911 86.3157C49.7971 86.3157 47.0304 89.6198 47.0304 94.9727C47.0304 100.324 49.7971 103.626 54.3911 103.626C58.9834 103.626 61.7534 100.324 61.7534 94.9727ZM268.792 81.3515C269.356 81.377 269.696 81.8748 269.696 82.3714C269.696 82.9279 269.188 83.2821 268.918 83.3734L269.628 84.8971H269.001L268.255 83.3403H267.411V84.8971H266.758V81.3515H268.792ZM267.411 82.85H268.677C269.023 82.7523 269.056 82.5695 269.065 82.3356C269.074 82.1061 268.855 81.8464 268.633 81.8464H267.411V82.85Z" fill="#343E8B"/>
<path d="M268.104 86.2409C269.822 86.2409 271.212 84.8506 271.212 83.1349C271.212 81.4178 269.822 80.0272 268.104 80.0272C266.388 80.0272 264.998 81.4178 264.998 83.1349C264.998 84.8507 266.388 86.2409 268.104 86.2409ZM265.503 83.1107C265.503 81.6724 266.665 80.507 268.104 80.507C269.542 80.507 270.705 81.6724 270.705 83.1107C270.705 84.5476 269.542 85.7129 268.104 85.7129C266.665 85.7129 265.503 84.5476 265.503 83.1107Z" fill="#343E8B"/>
</svg>
