<svg width="300" height="205" viewBox="0 0 300 205" fill="none" xmlns="http://www.w3.org/2000/svg">
<rect width="300" height="205" rx="10" fill="white"/>
<path d="M59.323 77.2583L49.7881 87.0005H64.9604V102.5L74.4956 92.7578V77.2583H59.323ZM64.9607 102.5V118H49.7878L59.3227 127.742H74.4953V112.242L64.9607 102.5ZM64.9607 102.5L49.7878 87.0002V118L64.9607 102.5ZM49.7881 118L34.6155 102.5V118L49.7881 118ZM34.6155 102.5L49.7881 86.9999H34.6155V102.5Z" fill="#E31A2F"/>
<path d="M84.6145 85.2815H90.2519V119.725H84.6145V85.2815ZM97.4256 101.613L108.232 85.2815H101.689L90.6765 101.621L103.174 119.725H110.245L97.4256 101.613ZM246.876 119.725H265.385V89.2991C265.385 87.0785 263.626 85.2815 261.454 85.2815H243.641V90.5168H259.743V99.5467H246.876C244.701 99.5467 242.942 101.345 242.942 103.565V115.706C242.942 117.926 244.705 119.725 246.876 119.725ZM248.583 104.782H259.743V114.49H248.584L248.583 104.782ZM234.514 85.2815C236.686 85.2815 238.448 87.0785 238.448 89.2991V100.615C238.448 102.834 236.685 104.633 234.514 104.633H232.235L240.421 119.725H234.24L223.306 99.5467H232.807V90.5168H221.421V119.725H215.779V85.2815H234.514ZM190.685 89.2988C190.685 87.0785 192.444 85.2815 194.615 85.2815H211.004V90.5168H196.326V99.5467H210.503V104.782H196.326V114.49H211.004V119.725H194.615C192.443 119.725 190.685 117.926 190.685 115.707V89.2985M166.365 89.2988C166.365 87.0785 168.127 85.2815 170.299 85.2815H186.453V90.5168H172.01V114.49H186.453V119.725H170.299C168.127 119.725 166.365 117.926 166.365 115.707V89.2988ZM138.142 89.2991C138.142 87.0785 139.901 85.2815 142.072 85.2815H157.524C159.695 85.2815 161.454 87.0785 161.454 89.2995V115.707C161.454 117.926 159.695 119.725 157.519 119.725H142.072C139.901 119.725 138.142 117.926 138.142 115.707V89.2991ZM143.779 114.49H155.812V90.5168H143.779V114.49ZM111.221 101.222V85.2815H116.863V100.007H127.586V85.2815H133.227V115.707C133.227 117.926 131.464 119.725 129.293 119.725L112.579 119.727V114.49L127.586 114.493V105.241H115.152C112.98 105.241 111.221 103.442 111.221 101.222Z" fill="#231F20"/>
</svg>
