<svg width="800" height="800" viewBox="0 0 800 800" fill="none" xmlns="http://www.w3.org/2000/svg">
<g clip-path="url(#clip0_216_1333)">
<path d="M626.485 297.357C614.605 297.357 605.624 302.922 598.822 311.004C598.602 308.472 598.499 306.293 598.499 304.556C598.499 267.559 578.05 243.651 546.426 243.651C532.44 243.651 521.752 247.552 513.787 253.058C509.017 236.525 494.987 218.181 468.119 218.181C453.397 218.181 442.076 222.539 433.64 228.089C433.257 162.414 432.772 83.1794 432.772 79.337C432.772 64.0996 414.501 34.4492 380.979 34.4492C352.183 34.4492 336.091 61.4938 331.13 77.4673C330.733 78.7481 330.512 80.0878 330.468 81.4275L323.033 349.871C310.843 327.169 293.662 305.586 280.677 298.962C265.469 291.188 239.691 296.444 224.38 310.445C210.217 323.4 206.493 341.803 214.192 360.942C220.317 376.15 224.027 394.037 228.34 414.722C233.832 441.148 240.663 474.022 255.193 514.111C278.528 578.52 351.388 646.536 371.704 664.63V713.065C371.704 761.001 410.762 799.985 458.771 799.985H554.126C602.135 799.985 641.193 760.956 641.193 712.977V654.825C665.69 621.258 680.309 560.794 680.942 558.144C681.222 557.026 681.34 555.877 681.34 554.729V353.581C681.369 319.941 659.316 297.357 626.485 297.357ZM651.925 552.962C647.332 571.439 633.007 618.608 615.09 640.515C612.941 643.15 611.763 646.433 611.763 649.834V712.992C611.763 744.733 585.911 770.555 554.141 770.555H458.771C427.001 770.555 401.149 744.777 401.149 713.08V657.975C401.149 653.662 399.249 649.569 395.966 646.772C395.083 646.006 306.839 570.261 282.871 504.1C269.032 465.984 262.731 435.583 257.151 408.759C252.573 386.676 248.598 367.611 241.502 349.974C237.674 340.448 240.633 335.782 243.651 332.778C249.481 326.948 258.933 324.784 264.203 324.784C265.573 324.784 266.647 324.931 267.31 325.196C277.232 330.276 301.362 364.49 307.604 389.238C310.151 399.308 311.432 408.847 312.566 417.269C314.715 433.345 316.423 446.036 326.051 453.706C330.409 457.165 336.356 457.887 341.421 455.517C346.485 453.176 349.768 448.156 349.93 442.576L359.853 84.6517C361.914 79.4842 369.128 63.9082 380.979 63.9082C397.571 63.9082 403.077 79.3811 403.313 79.3811L403.327 79.3664C403.327 86.3741 404.726 315.892 404.726 315.892C404.77 323.665 410.865 330.069 418.624 330.496C426.824 330.805 433.154 325.27 434.067 317.511L440.604 261.773C443.327 257.534 451.439 247.626 468.105 247.626C482.974 247.626 485.742 259.948 486.36 266.278L495.591 326.006C496.783 333.676 503.85 339.256 511.432 338.432C519.161 337.74 525.035 331.174 524.859 323.415L523.946 285.211C525.521 281.398 530.762 273.11 546.397 273.11C565.109 273.11 569.025 290.217 569.025 304.571C569.025 322.399 577.564 368.435 578.535 373.617C579.89 380.817 586.353 386.087 593.625 385.616C600.942 385.307 606.92 379.653 607.641 372.366C609.687 351.74 618.521 326.831 626.441 326.831C647.464 326.831 651.881 341.391 651.881 353.595L651.925 552.962Z" fill="#BBBBBB"/>
<path d="M211.277 87.5964L273.728 150.048C276.599 152.918 280.368 154.361 284.137 154.361C287.906 154.361 291.674 152.918 294.545 150.048C300.302 144.291 300.302 134.987 294.545 129.231L242.503 77.1878L294.545 25.1304C300.302 19.3741 300.302 10.0697 294.545 4.31336C288.789 -1.44299 279.485 -1.44299 273.728 4.31336L211.277 66.7793C205.535 72.5357 205.535 81.8548 211.277 87.5964Z" fill="#BBBBBB"/>
<path d="M206.213 129.231L154.17 77.1878L206.213 25.1304C211.969 19.3741 211.969 10.0697 206.213 4.31336C200.456 -1.44299 191.152 -1.44299 185.395 4.31336L122.944 66.7793C117.188 72.5357 117.188 81.84 122.944 87.5964L185.395 150.048C188.266 152.918 192.035 154.361 195.804 154.361C199.573 154.361 203.342 152.918 206.213 150.048C211.969 144.306 211.969 134.987 206.213 129.231Z" fill="#BBBBBB"/>
<path d="M605.521 77.1878L553.464 129.231C547.707 134.987 547.707 144.291 553.464 150.048C556.335 152.918 560.103 154.361 563.872 154.361C567.641 154.361 571.41 152.918 574.281 150.048L636.747 87.5964C639.515 84.8286 641.06 81.1039 641.06 77.1878C641.06 73.2718 639.515 69.5471 636.747 66.7793L574.281 4.31336C568.524 -1.44299 559.22 -1.44299 553.464 4.31336C547.707 10.0697 547.707 19.3741 553.464 25.1304L605.521 77.1878Z" fill="#BBBBBB"/>
<path d="M465.116 150.048C467.987 152.918 471.756 154.361 475.525 154.361C479.293 154.361 483.062 152.918 485.933 150.048L548.399 87.5964C551.167 84.8286 552.713 81.1039 552.713 77.1878C552.713 73.2718 551.167 69.5471 548.399 66.7793L485.933 4.31336C480.177 -1.44299 470.872 -1.44299 465.116 4.31336C459.36 10.0697 459.36 19.3741 465.116 25.1304L517.174 77.1878L465.116 129.231C459.374 134.987 459.374 144.306 465.116 150.048Z" fill="#BBBBBB"/>
</g>
<defs>
<clipPath id="clip0_216_1333">
<rect width="800" height="800" fill="white"/>
</clipPath>
</defs>
</svg>
