<svg width="22" height="22" viewBox="0 0 22 22" fill="none" xmlns="http://www.w3.org/2000/svg">
<path fill-rule="evenodd" clip-rule="evenodd" d="M11.0003 0.411743C5.15124 0.411743 0.412109 5.15431 0.412109 10.9981C0.412109 16.553 4.69767 21.1125 10.1415 21.55V21.5882H11.0003C16.8495 21.5882 21.5886 16.8456 21.5886 11.0019C21.5886 5.15858 16.8499 0.411743 11.0003 0.411743ZM13.34 19.559C12.6757 19.7402 11.9804 19.8461 11.2637 19.867H11.0003C9.80525 19.867 8.66509 19.6303 7.62425 19.2012C8.63202 15.5701 11.3639 12.9692 14.4909 11.807C15.0305 14.4222 14.6388 17.2248 13.34 19.559ZM14.0148 10.153C10.4459 11.4384 7.32899 14.3338 6.07661 18.3749C3.69745 16.7836 2.12983 14.0727 2.12983 10.9981C2.12983 9.90775 2.32676 8.86319 2.68704 7.89809C3.76092 8.43316 4.90921 8.81165 6.09008 9.02213C7.59434 9.29792 9.13555 9.28876 10.6354 9.01832C11.4892 8.86419 12.3227 8.61869 13.1218 8.29154C13.4776 8.88288 13.7768 9.50602 14.0148 10.153ZM16.1465 11.3343C16.6622 13.7147 16.5058 16.2374 15.6828 18.5356C18.1247 17.0149 19.7733 14.3406 19.8667 11.277C18.6528 11.0569 17.3875 11.0837 16.1465 11.3343ZM19.7473 9.51866C18.403 9.32986 17.0206 9.39122 15.6702 9.67967C15.4042 8.93354 15.0685 8.21476 14.6686 7.53225C15.778 6.89148 16.7912 6.08499 17.6622 5.1446C18.7274 6.35575 19.4678 7.85937 19.7473 9.51866ZM6.39356 7.33172C5.36772 7.14909 4.37131 6.81984 3.44146 6.35513C4.24118 5.05655 5.36628 3.97944 6.70326 3.23767L6.71356 3.24091L6.71395 3.24103L6.71399 3.24104L6.71401 3.24105C6.85967 3.28689 6.99872 3.33065 7.13262 3.37871C7.18202 3.39758 7.2304 3.41592 7.27768 3.43384L7.27843 3.43412L7.27846 3.43414L7.27849 3.43415C7.49562 3.51647 7.6895 3.58999 7.85146 3.66508L7.89769 3.68818L7.90871 3.6933C8.01098 3.74087 8.15836 3.81112 8.29117 3.87445C8.36175 3.90813 8.42826 3.93983 8.4817 3.96511L8.48368 3.9662C8.52835 3.99019 8.56587 4.01034 8.60085 4.03119C8.6293 4.04965 8.65471 4.06461 8.66835 4.07258C8.69326 4.08717 8.71887 4.1016 8.73998 4.11335C8.75802 4.12337 8.77572 4.13313 8.78899 4.14041L8.79567 4.14408L8.8098 4.15189L8.81159 4.15292C8.83127 4.16427 8.85516 4.1779 8.88239 4.19345C8.94079 4.22677 9.01461 4.26889 9.09568 4.31634C9.15282 4.34983 9.2063 4.38176 9.24991 4.40879C9.28233 4.42893 9.29995 4.44061 9.30665 4.44506L9.30705 4.44532C9.30979 4.44715 9.31043 4.44758 9.30933 4.44673L9.34699 4.47526L9.38881 4.50011C9.4526 4.53797 9.51546 4.58147 9.5939 4.63574L9.59393 4.63576L9.59396 4.63578L9.59429 4.63601C9.63009 4.66079 9.66917 4.68782 9.71304 4.7176L9.74285 4.73782L9.7682 4.75211C9.76817 4.75216 9.76936 4.75296 9.77188 4.75466C9.7787 4.75925 9.79525 4.7704 9.82409 4.79106C9.86846 4.82282 9.92203 4.86269 9.98099 4.90703L10.0508 4.95964C10.0867 4.98674 10.1231 5.01421 10.1541 5.03737C10.195 5.06797 10.245 5.10513 10.2902 5.13643C10.9493 5.64052 11.5517 6.2161 12.0881 6.85053C11.5174 7.05933 10.9293 7.22008 10.3304 7.32821C9.02494 7.56357 7.69152 7.56992 6.39807 7.33255L6.39582 7.33211L6.39356 7.33172ZM11.0003 2.12915C13.0364 2.12915 14.9121 2.81586 16.4091 3.9699C15.6242 4.81905 14.7051 5.54223 13.6987 6.10818C13.0068 5.22875 12.2063 4.43697 11.3138 3.75712L11.2923 3.74071L11.2699 3.72578L11.2638 3.72155C11.2591 3.71818 11.2527 3.71364 11.2446 3.70772C11.2281 3.69575 11.2077 3.68064 11.1832 3.6623C11.1554 3.64152 11.1276 3.6205 11.0976 3.59792L11.0976 3.59788L11.0914 3.59325C11.0672 3.57493 11.0415 3.55554 11.0134 3.53442C10.9526 3.48869 10.8859 3.43894 10.8246 3.39504C10.7818 3.36435 10.7202 3.32094 10.6573 3.28267L10.6175 3.25508L10.6173 3.25493L10.6172 3.25492C10.5355 3.19829 10.4128 3.11333 10.3012 3.0448C10.197 2.97171 10.0561 2.88845 9.96375 2.8344C9.87438 2.78206 9.77813 2.72713 9.71837 2.69302L9.71791 2.69276L9.67264 2.66688C9.66142 2.66032 9.6517 2.65491 9.64789 2.65279L9.64736 2.65249L9.62417 2.63966L9.61632 2.63534C9.60299 2.628 9.58966 2.62066 9.57579 2.61294C9.55991 2.60411 9.54707 2.59682 9.53771 2.59137L9.53125 2.58685L9.50846 2.57293C9.42596 2.52252 9.34001 2.47649 9.29336 2.4515L9.29236 2.45097L9.27611 2.44226L9.25616 2.43152L9.23568 2.42184C9.19469 2.4025 9.1341 2.37363 9.06531 2.34084C9.68816 2.20225 10.3357 2.12915 11.0003 2.12915Z" fill="#05F9FF"/>
</svg>
