<svg width="12" height="12" viewBox="0 0 12 12" fill="none" xmlns="http://www.w3.org/2000/svg">
<path d="M5.5001 10.392V1.00001C5.5001 0.858007 5.54776 0.739007 5.6431 0.643007C5.73843 0.547007 5.85743 0.49934 6.0001 0.500007C6.14276 0.500674 6.26176 0.54834 6.3571 0.643007C6.45243 0.737674 6.5001 0.856674 6.5001 1.00001V10.392L10.2461 6.64601C10.3394 6.55267 10.4544 6.50267 10.5911 6.49601C10.7264 6.48934 10.8474 6.53934 10.9541 6.64601C11.0608 6.75267 11.1141 6.87067 11.1141 7.00001C11.1141 7.12934 11.0608 7.24734 10.9541 7.35401L6.5651 11.742C6.40376 11.904 6.21543 11.985 6.0001 11.985C5.78476 11.985 5.59643 11.904 5.4351 11.742L1.0461 7.35401C0.952763 7.26067 0.902763 7.14601 0.896096 7.01001C0.889429 6.87401 0.939429 6.75267 1.0461 6.64601C1.15276 6.53934 1.27076 6.48601 1.4001 6.48601C1.52943 6.48601 1.64743 6.53934 1.7541 6.64601L5.5001 10.392Z" fill="#05FBFF"/>
</svg>
