<svg width="34" height="34" viewBox="0 0 34 34" fill="none" xmlns="http://www.w3.org/2000/svg">
<path d="M16.2208 30.8122C8.21667 30.8122 1.7 24.2956 1.7 16.2914C1.7 8.28722 8.21667 1.77056 16.2208 1.77056C24.225 1.77056 30.7417 8.28722 30.7417 16.2914C30.7417 24.2956 24.225 30.8122 16.2208 30.8122ZM16.2208 3.89556C9.37833 3.89556 3.825 9.46306 3.825 16.2914C3.825 23.1197 9.37833 28.6872 16.2208 28.6872C23.0633 28.6872 28.6167 23.1197 28.6167 16.2914C28.6167 9.46306 23.0633 3.89556 16.2208 3.89556Z" fill="#BBBBBB"/>
<path d="M31.1667 32.2292C30.8975 32.2292 30.6283 32.13 30.4158 31.9175L27.5825 29.0842C27.1717 28.6733 27.1717 27.9933 27.5825 27.5825C27.9933 27.1717 28.6733 27.1717 29.0842 27.5825L31.9175 30.4158C32.3283 30.8267 32.3283 31.5067 31.9175 31.9175C31.705 32.13 31.4358 32.2292 31.1667 32.2292Z" fill="#BBBBBB"/>
<path d="M9.99981 23.8C9.64093 23.8 9.34678 23.5084 9.38101 23.1511C9.531 21.5858 10.2203 20.1131 11.3417 18.9917C12.6169 17.7164 14.3465 17 16.15 17C17.9535 17 19.6831 17.7164 20.9583 18.9917C22.0797 20.1131 22.769 21.5858 22.919 23.1511C22.9532 23.5084 22.6591 23.8 22.3002 23.8C21.9413 23.8 21.6544 23.508 21.6121 23.1517C21.4673 21.9317 20.9169 20.7882 20.0394 19.9106C19.0078 18.8791 17.6088 18.2996 16.15 18.2996C14.6912 18.2996 13.2922 18.8791 12.2606 19.9106C11.3831 20.7882 10.8327 21.9317 10.6879 23.1517C10.6457 23.508 10.3587 23.8 9.99981 23.8Z" fill="#BBBBBB"/>
<path d="M11.9 12.325C11.9 13.0292 11.3292 13.6 10.625 13.6C9.92084 13.6 9.35 13.0292 9.35 12.325C9.35 11.6208 9.92084 11.05 10.625 11.05C11.3292 11.05 11.9 11.6208 11.9 12.325Z" fill="#BBBBBB"/>
<path d="M22.95 12.325C22.95 13.0292 22.3792 13.6 21.675 13.6C20.9708 13.6 20.4 13.0292 20.4 12.325C20.4 11.6208 20.9708 11.05 21.675 11.05C22.3792 11.05 22.95 11.6208 22.95 12.325Z" fill="#BBBBBB"/>
</svg>
