<svg width="24" height="24" viewBox="0 0 24 24" fill="none" xmlns="http://www.w3.org/2000/svg">
<path d="M9.01043 21.2502C8.82043 21.2502 8.63043 21.1802 8.48043 21.0302L3.47043 16.0202C3.18043 15.7302 3.18043 15.2502 3.47043 14.9602C3.76043 14.6702 4.24043 14.6702 4.53043 14.9602L9.54043 19.9702C9.83043 20.2602 9.83043 20.7402 9.54043 21.0302C9.39043 21.1702 9.20043 21.2502 9.01043 21.2502Z" fill="#BBBBBB"/>
<path d="M9.00977 21.25C8.59977 21.25 8.25977 20.91 8.25977 20.5V3.5C8.25977 3.09 8.59977 2.75 9.00977 2.75C9.41977 2.75 9.75977 3.09 9.75977 3.5V20.5C9.75977 20.91 9.41977 21.25 9.00977 21.25Z" fill="#BBBBBB"/>
<path d="M20.0104 9.25994C19.8204 9.25994 19.6304 9.18994 19.4804 9.03994L14.4704 4.02994C14.1804 3.73994 14.1804 3.25994 14.4704 2.96994C14.7604 2.67994 15.2404 2.67994 15.5304 2.96994L20.5404 7.97994C20.8304 8.26994 20.8304 8.74994 20.5404 9.03994C20.3904 9.18994 20.2004 9.25994 20.0104 9.25994Z" fill="#BBBBBB"/>
<path d="M14.9902 21.25C14.5802 21.25 14.2402 20.91 14.2402 20.5V3.5C14.2402 3.09 14.5802 2.75 14.9902 2.75C15.4002 2.75 15.7402 3.09 15.7402 3.5V20.5C15.7402 20.91 15.4102 21.25 14.9902 21.25Z" fill="#BBBBBB"/>
</svg>
