<svg width="20" height="20" viewBox="0 0 20 20" fill="none" xmlns="http://www.w3.org/2000/svg">
<path d="M14.25 1.6665H10.75C8.18081 1.6665 6.97586 2.57824 6.72483 4.78235C6.67232 5.24346 7.05421 5.62484 7.5183 5.62484H9.25005C12.75 5.62484 14.375 7.24984 14.375 10.7498V12.4816C14.375 12.9457 14.7564 13.3276 15.2175 13.2751C17.4216 13.024 18.3334 11.8191 18.3334 9.24984V5.74984C18.3334 2.83317 17.1667 1.6665 14.25 1.6665Z" fill="white"/>
<path d="M9.24996 6.6665H5.74996C2.83329 6.6665 1.66663 7.83317 1.66663 10.7498V14.2498C1.66663 17.1665 2.83329 18.3332 5.74996 18.3332H9.24996C12.1666 18.3332 13.3333 17.1665 13.3333 14.2498V10.7498C13.3333 7.83317 12.1666 6.6665 9.24996 6.6665ZM10.2416 11.3748L7.14996 14.4665C7.03329 14.5832 6.88329 14.6415 6.72496 14.6415C6.56663 14.6415 6.41663 14.5832 6.29996 14.4665L4.74996 12.9165C4.51663 12.6832 4.51663 12.3082 4.74996 12.0748C4.98329 11.8415 5.35829 11.8415 5.59163 12.0748L6.71663 13.1998L9.39163 10.5248C9.62496 10.2915 9.99996 10.2915 10.2333 10.5248C10.4666 10.7582 10.475 11.1415 10.2416 11.3748Z" fill="white"/>
</svg>
