<svg width="79" height="36" viewBox="0 0 79 36" fill="none" xmlns="http://www.w3.org/2000/svg">
<rect x="0.45" y="0.45" width="46.1" height="35.1" rx="6.75" fill="url(#paint0_linear_40_164)" stroke="#666666" stroke-width="0.9"/>
<path fill-rule="evenodd" clip-rule="evenodd" d="M30.1059 7.90323C28.4997 4.67827 25.9763 2.14598 24.3165 1.15645C24.2067 1.09263 24.1267 0.987587 24.0939 0.864434C24.0612 0.741282 24.0785 0.610105 24.142 0.499761C24.2055 0.389417 24.3099 0.308945 24.4325 0.276048C24.555 0.243151 24.6854 0.260524 24.7952 0.324344C26.9696 1.60623 29.4974 4.54783 30.947 7.45345C30.9819 7.50909 31.0043 7.57175 31.0124 7.63702C31.0206 7.70228 31.0145 7.76855 30.9944 7.83117C30.9744 7.89378 30.9409 7.95121 30.8964 7.99941C30.8519 8.04761 30.7974 8.08541 30.7367 8.11014C30.6721 8.1452 30.5999 8.16374 30.5265 8.16411C30.4392 8.1642 30.3536 8.13984 30.2793 8.09376C30.205 8.04768 30.145 7.9817 30.1059 7.90323ZM15.5653 23.3354C15.5966 27.8063 19.7798 33.1363 22.6611 34.8589C22.7167 34.8881 22.7656 34.9287 22.8046 34.9781C22.8436 35.0276 22.8718 35.0846 22.8874 35.1457C22.903 35.2068 22.9056 35.2705 22.8952 35.3327C22.8847 35.3949 22.8614 35.4541 22.8267 35.5066C22.7844 35.5775 22.7248 35.6362 22.6535 35.6771C22.5822 35.7181 22.5016 35.7399 22.4195 35.7405C22.3357 35.7408 22.2536 35.7174 22.1824 35.6731C19.1087 33.8514 14.9031 28.526 14.6346 23.7582H0.469776C0.352518 23.7467 0.243712 23.6918 0.164549 23.6041C0.0853866 23.5163 0.0415349 23.4021 0.0415349 23.2837C0.0415349 23.1653 0.0853866 23.0511 0.164549 22.9633C0.243712 22.8756 0.352518 22.8207 0.469776 22.8092H14.7241C15.6169 19.6635 15.6169 16.3295 14.7241 13.1838H0.469776C0.345184 13.1838 0.225694 13.134 0.137594 13.0454C0.0494941 12.9569 0 12.8367 0 12.7115C0 12.5862 0.0494941 12.4661 0.137594 12.3775C0.225694 12.289 0.345184 12.2392 0.469776 12.2392H14.6346C14.9031 7.4535 19.1266 2.14603 22.1824 0.324393C22.2922 0.260573 22.4226 0.2432 22.5451 0.276097C22.6676 0.308994 22.7721 0.389466 22.8356 0.49981C22.8991 0.610153 22.9164 0.74133 22.8836 0.864483C22.8509 0.987636 22.7709 1.09268 22.6611 1.1565C19.7798 2.85669 15.5966 8.19115 15.5653 12.6665C16.59 16.1482 16.59 19.8537 15.5653 23.3354ZM46.5302 22.8092H32.249C31.3563 19.6635 31.3563 16.3295 32.249 13.1838H46.5302C46.6548 13.1838 46.7743 13.1341 46.8624 13.0455C46.9505 12.9569 47 12.8368 47 12.7115C47 12.5863 46.9505 12.4662 46.8624 12.3776C46.7743 12.289 46.6548 12.2393 46.5302 12.2393H31.8866C31.7848 12.2404 31.6861 12.2748 31.6054 12.3373C31.5247 12.3998 31.4663 12.4869 31.4392 12.5856C30.399 16.0926 30.399 19.8285 31.4392 23.3355C31.4079 27.8063 27.2246 33.1363 24.3433 34.859C24.2862 34.8865 24.2356 34.9259 24.1948 34.9746C24.154 35.0233 24.1239 35.0801 24.1066 35.1413C24.0893 35.2025 24.085 35.2668 24.0942 35.3297C24.1034 35.3927 24.1258 35.453 24.1599 35.5067C24.2021 35.5775 24.2617 35.6362 24.333 35.6772C24.4043 35.7181 24.4849 35.74 24.567 35.7406C24.6508 35.7408 24.733 35.7175 24.8042 35.6731C27.8599 33.874 32.0835 28.526 32.3519 23.7583H46.5302C46.6474 23.7468 46.7563 23.6918 46.8354 23.6041C46.9146 23.5164 46.9584 23.4022 46.9584 23.2837C46.9584 23.1653 46.9146 23.0511 46.8354 22.9634C46.7563 22.8757 46.6474 22.8207 46.5302 22.8092ZM23.0215 2.90013C23.1598 2.80721 23.3224 2.75762 23.4888 2.75762C23.7119 2.75762 23.9258 2.84671 24.0835 3.00529C24.2413 3.16387 24.3299 3.37895 24.3299 3.60321C24.3299 3.77046 24.2806 3.93395 24.1881 4.073C24.0957 4.21206 23.9644 4.32044 23.8107 4.38444C23.657 4.44845 23.4878 4.46519 23.3247 4.43256C23.1615 4.39994 23.0116 4.3194 22.894 4.20114C22.7764 4.08288 22.6963 3.93221 22.6638 3.76818C22.6314 3.60415 22.648 3.43413 22.7117 3.27962C22.7753 3.12511 22.8832 2.99304 23.0215 2.90013Z" fill="#666666"/>
<path d="M59.2591 14.52C59.1558 14.3801 59.081 14.2212 59.0391 14.0523C58.9971 13.8835 58.9889 13.7081 59.0147 13.5361C59.067 13.1886 59.2551 12.8762 59.5377 12.6675C59.8203 12.4587 60.1742 12.3708 60.5216 12.4231C60.869 12.4753 61.1815 12.6634 61.3902 12.946C61.8797 13.6029 62.2623 14.3331 62.5237 15.1094C62.7956 15.9149 62.9334 16.7596 62.9318 17.6097C62.9327 18.4577 62.7949 19.3001 62.5237 20.1035C62.2623 20.8799 61.8797 21.61 61.3902 22.267C61.1815 22.5495 60.869 22.7377 60.5216 22.7899C60.1742 22.8421 59.8203 22.7542 59.5377 22.5455C59.2551 22.3368 59.067 22.0243 59.0147 21.6769C58.9625 21.3295 59.0504 20.9755 59.2591 20.6929C59.5826 20.2625 59.8361 19.7838 60.0105 19.2744C60.1959 18.7388 60.2922 18.1765 60.2955 17.6097C60.2977 17.0462 60.208 16.4861 60.0299 15.9515C59.8508 15.4364 59.5906 14.9531 59.2591 14.52V14.52ZM63.7933 12.0521C64.8243 13.722 65.3673 15.6472 65.3608 17.6097C65.3697 19.5687 64.8312 21.4913 63.8063 23.1608C63.7148 23.3088 63.6534 23.4734 63.6256 23.6451C63.5977 23.8169 63.604 23.9924 63.644 24.1617C63.684 24.331 63.7569 24.4908 63.8587 24.6319C63.9604 24.7731 64.089 24.8928 64.237 24.9842C64.385 25.0757 64.5496 25.137 64.7213 25.1649C64.8931 25.1927 65.0686 25.1865 65.2379 25.1465C65.4072 25.1065 65.567 25.0335 65.7081 24.9318C65.8492 24.83 65.9689 24.7015 66.0604 24.5535C67.3447 22.4661 68.018 20.0605 68.0036 17.6097C68.0188 15.1568 67.3456 12.7488 66.0604 10.6595C65.9689 10.5115 65.8492 10.3829 65.7081 10.2812C65.567 10.1794 65.4072 10.1065 65.2379 10.0665C65.0686 10.0265 64.8931 10.0202 64.7213 10.0481C64.5496 10.0759 64.385 10.1373 64.237 10.2287C64.089 10.3202 63.9604 10.4399 63.8587 10.581C63.7569 10.7221 63.684 10.8819 63.644 11.0512C63.604 11.2205 63.5977 11.3961 63.6256 11.5678C63.6534 11.7395 63.7148 11.9041 63.8063 12.0521H63.7933ZM68.6189 9.55833C70.0502 12.0095 70.8036 14.7972 70.8018 17.6356C70.8027 20.4719 70.0494 23.2573 68.6189 25.7064C68.5309 25.8566 68.4733 26.0226 68.4494 26.195C68.4255 26.3674 68.4358 26.5428 68.4798 26.7112C68.5237 26.8796 68.6003 27.0377 68.7053 27.1765C68.8103 27.3153 68.9417 27.4321 69.0918 27.5201C69.2419 27.6081 69.4079 27.6658 69.5803 27.6896C69.7527 27.7135 69.9281 27.7032 70.0966 27.6593C70.265 27.6154 70.4231 27.5387 70.5619 27.4337C70.7007 27.3287 70.8174 27.1974 70.9055 27.0473C72.5777 24.1954 73.4566 20.9481 73.4511 17.6421C73.4621 14.324 72.5854 11.0633 70.9119 8.19808C70.7316 7.89401 70.4378 7.67405 70.0952 7.58659C69.7527 7.49913 69.3894 7.55133 69.0853 7.73171C68.7813 7.91209 68.5613 8.20588 68.4738 8.54844C68.3864 8.89099 68.4386 9.25426 68.6189 9.55833V9.55833ZM73.4252 7.03216C75.2661 10.2624 76.2307 13.9177 76.2234 17.6356C76.2299 21.3514 75.2653 25.0044 73.4252 28.2326C73.3401 28.3836 73.2856 28.5499 73.2648 28.7219C73.244 28.894 73.2573 29.0684 73.3039 29.2353C73.3505 29.4022 73.4295 29.5583 73.5365 29.6947C73.6434 29.8311 73.7762 29.945 73.9272 30.0301C74.0781 30.1152 74.2444 30.1696 74.4165 30.1904C74.5885 30.2113 74.763 30.198 74.9299 30.1514C75.0968 30.1047 75.2529 30.0257 75.3892 29.9188C75.5256 29.8118 75.6396 29.6791 75.7246 29.5281C77.7919 25.8987 78.8769 21.793 78.8726 17.6162C78.8823 13.4284 77.797 9.31092 75.7246 5.67191C75.5528 5.36698 75.267 5.14278 74.9299 5.04864C74.5928 4.9545 74.2321 4.99812 73.9272 5.16991C73.6222 5.3417 73.398 5.62759 73.3039 5.96468C73.2098 6.30177 73.2534 6.66245 73.4252 6.96738" fill="white"/>
<defs>
<linearGradient id="paint0_linear_40_164" x1="-4.47619" y1="-7.24616e-07" x2="50.9778" y2="35.7315" gradientUnits="userSpaceOnUse">
<stop stop-color="#DDD9D6"/>
<stop offset="0.212761" stop-color="#8A868C"/>
<stop offset="0.548384" stop-color="#F2F3F3" stop-opacity="0.8"/>
<stop offset="0.914316" stop-color="#807C80"/>
<stop offset="1" stop-color="#A6A8AB"/>
</linearGradient>
</defs>
</svg>
