<svg width="102" height="18" viewBox="0 0 102 18" fill="none" xmlns="http://www.w3.org/2000/svg">
<path d="M5.5459 14.2197C4.6084 14.2197 3.68555 14.0439 2.77734 13.6924C1.86914 13.335 1.11035 12.8604 0.500977 12.2686L1.61719 10.6338C2.11523 11.1318 2.71289 11.5332 3.41016 11.8379C4.11328 12.1367 4.8252 12.2861 5.5459 12.2861C6.2666 12.2861 6.87305 12.1309 7.36523 11.8203C7.85742 11.5098 8.10352 11.1084 8.10352 10.6162C8.10352 10.4229 8.0625 10.2441 7.98047 10.0801C7.89844 9.91016 7.77539 9.76367 7.61133 9.64062C7.44727 9.51758 7.2832 9.41211 7.11914 9.32422C6.95508 9.23047 6.74121 9.14551 6.47754 9.06934C6.21973 8.9873 6.00586 8.92578 5.83594 8.88477C5.67188 8.83789 5.45508 8.78516 5.18555 8.72656C4.58789 8.58594 4.0459 8.41602 3.55957 8.2168C3.07324 8.01172 2.625 7.75977 2.21484 7.46094C1.80469 7.16211 1.48535 6.79883 1.25684 6.37109C1.02832 5.9375 0.914062 5.45703 0.914062 4.92969C0.914062 3.86328 1.3418 3.00195 2.19727 2.3457C3.05273 1.68945 4.16309 1.36133 5.52832 1.36133C6.40137 1.36133 7.2041 1.50195 7.93652 1.7832C8.66895 2.06445 9.26953 2.43945 9.73828 2.9082L8.72754 4.53418C8.37598 4.1709 7.9043 3.87207 7.3125 3.6377C6.72656 3.40332 6.12012 3.28613 5.49316 3.28613C4.80176 3.28613 4.2334 3.43262 3.78809 3.72559C3.34863 4.01855 3.12891 4.39648 3.12891 4.85938C3.12891 5.70898 4.0166 6.3125 5.79199 6.66992C6.01465 6.7168 6.22266 6.7666 6.41602 6.81934C6.60938 6.87207 6.86719 6.9541 7.18945 7.06543C7.51172 7.17676 7.80176 7.29688 8.05957 7.42578C8.31738 7.55469 8.58984 7.72461 8.87695 7.93555C9.16992 8.14062 9.41309 8.36328 9.60645 8.60352C9.80566 8.83789 9.96973 9.12207 10.0986 9.45605C10.2275 9.79004 10.292 10.1475 10.292 10.5283C10.292 11.6123 9.84082 12.5 8.93848 13.1914C8.03613 13.877 6.90527 14.2197 5.5459 14.2197ZM12.9199 3.26855C12.5566 3.26855 12.252 3.14551 12.0059 2.89941C11.7598 2.65332 11.6367 2.35156 11.6367 1.99414C11.6367 1.625 11.7598 1.32031 12.0059 1.08008C12.252 0.839844 12.5566 0.719727 12.9199 0.719727C13.2891 0.719727 13.5967 0.839844 13.8428 1.08008C14.0889 1.32031 14.2119 1.625 14.2119 1.99414C14.2119 2.35742 14.0889 2.66211 13.8428 2.9082C13.5967 3.14844 13.2891 3.26855 12.9199 3.26855ZM11.9092 14V4.82422H13.9307V14H11.9092ZM22.1396 14.0879C23.0303 14.0879 23.7715 14.3193 24.3633 14.7822C24.9551 15.251 25.3184 15.8896 25.4531 16.6982L23.3613 17.2607C23.3379 16.8916 23.1797 16.5957 22.8867 16.373C22.5938 16.1562 22.2188 16.0479 21.7617 16.0479H18.6064C17.792 16.0479 17.1328 15.8311 16.6289 15.3975C16.125 14.9697 15.873 14.4072 15.873 13.71C15.873 13.2529 15.9814 12.8252 16.1982 12.4268C16.415 12.0225 16.708 11.7119 17.0771 11.4951C16.251 10.7275 15.8379 9.76953 15.8379 8.62109C15.8379 7.47852 16.2451 6.52344 17.0596 5.75586C17.874 4.98828 18.8877 4.60449 20.1006 4.60449C20.8506 4.60449 21.5479 4.76562 22.1924 5.08789C22.3096 4.5957 22.5674 4.20898 22.9658 3.92773C23.3701 3.64648 23.8623 3.50586 24.4424 3.50586H25.1807V5.37793H24.5479C24.2666 5.37793 24.0293 5.45117 23.8359 5.59766C23.6484 5.73828 23.543 5.92871 23.5195 6.16895C24.0879 6.87793 24.3721 7.69531 24.3721 8.62109C24.3721 9.75781 23.9619 10.71 23.1416 11.4775C22.3213 12.2451 21.3076 12.6289 20.1006 12.6289C19.4736 12.6289 18.9053 12.5293 18.3955 12.3301C18.0674 12.5469 17.9033 12.8398 17.9033 13.209C17.9033 13.4668 18.0029 13.6777 18.2021 13.8418C18.4014 14.0059 18.6621 14.0879 18.9844 14.0879H22.1396ZM20.1006 6.51172C19.4736 6.51172 18.9492 6.71387 18.5273 7.11816C18.1113 7.5166 17.9033 8.01758 17.9033 8.62109C17.9033 9.21875 18.1113 9.71973 18.5273 10.124C18.9492 10.5225 19.4736 10.7217 20.1006 10.7217C20.7217 10.7217 21.2402 10.5195 21.6562 10.1152C22.0723 9.71094 22.2803 9.21289 22.2803 8.62109C22.2803 8.01758 22.0723 7.5166 21.6562 7.11816C21.2402 6.71387 20.7217 6.51172 20.1006 6.51172ZM37.5029 4.60449C38.5459 4.60449 39.3779 4.91797 39.999 5.54492C40.626 6.17188 40.9395 7.00391 40.9395 8.04102V14H38.918V8.63867C38.918 8.00586 38.7334 7.49902 38.3643 7.11816C37.9951 6.7373 37.5029 6.54688 36.8877 6.54688C36.2373 6.54688 35.71 6.74316 35.3057 7.13574C34.9072 7.52832 34.708 8.04102 34.708 8.67383V14H32.6953V8.63867C32.6953 8.00586 32.5078 7.49902 32.1328 7.11816C31.7637 6.7373 31.2715 6.54688 30.6562 6.54688C30.0117 6.54688 29.4873 6.74316 29.083 7.13574C28.6846 7.52246 28.4854 8.03516 28.4854 8.67383V14H26.4639V4.82422H28.4854V5.89648C29.1826 5.03516 30.1289 4.60449 31.3242 4.60449C31.9922 4.60449 32.5811 4.74805 33.0908 5.03516C33.6006 5.31641 33.9961 5.71191 34.2773 6.22168C35.0215 5.14355 36.0967 4.60449 37.5029 4.60449ZM50.3965 4.82422H52.418V14H50.3965V12.6816C49.5879 13.707 48.5156 14.2197 47.1797 14.2197C46.3301 14.2197 45.5596 14.0117 44.8682 13.5957C44.1768 13.1738 43.6348 12.5967 43.2422 11.8643C42.8555 11.1318 42.6621 10.3145 42.6621 9.41211C42.6621 8.50977 42.8555 7.69238 43.2422 6.95996C43.6348 6.22754 44.1768 5.65332 44.8682 5.2373C45.5596 4.81543 46.3301 4.60449 47.1797 4.60449C48.5215 4.60449 49.5938 5.11426 50.3965 6.13379V4.82422ZM47.5752 12.2686C48.3838 12.2686 49.0547 11.9961 49.5879 11.4512C50.127 10.9004 50.3965 10.2207 50.3965 9.41211C50.3965 8.59766 50.127 7.91797 49.5879 7.37305C49.0547 6.82227 48.3838 6.54688 47.5752 6.54688C46.7607 6.54688 46.0811 6.82227 45.5361 7.37305C44.9971 7.91797 44.7275 8.59766 44.7275 9.41211C44.7275 10.2207 44.9971 10.9004 45.5361 11.4512C46.0811 11.9961 46.7607 12.2686 47.5752 12.2686ZM66.6123 7.4082C67.2451 7.60742 67.7607 8.00586 68.1592 8.60352C68.5576 9.20117 68.7568 9.87793 68.7568 10.6338C68.7568 11.6064 68.4258 12.4121 67.7637 13.0508C67.1074 13.6836 66.2812 14 65.2852 14H59.2383V1.58105H64.8721C65.792 1.58105 66.5596 1.87988 67.1748 2.47754C67.7959 3.06934 68.1064 3.81348 68.1064 4.70996C68.1064 5.30176 67.9658 5.84375 67.6846 6.33594C67.4092 6.82227 67.0518 7.17969 66.6123 7.4082ZM64.3447 3.50586H61.3037V6.66992H64.3447C64.7783 6.66992 65.1475 6.51758 65.4521 6.21289C65.7568 5.9082 65.9092 5.5332 65.9092 5.08789C65.9092 4.63672 65.7598 4.26172 65.4609 3.96289C65.1621 3.6582 64.79 3.50586 64.3447 3.50586ZM64.7754 12.0752C65.2793 12.0752 65.6982 11.9023 66.0322 11.5566C66.3721 11.2109 66.542 10.7832 66.542 10.2734C66.542 9.76953 66.3721 9.34766 66.0322 9.00781C65.6982 8.66211 65.2793 8.48926 64.7754 8.48926H61.3037V12.0752H64.7754ZM77.6953 4.82422H79.7168V14H77.6953V12.6816C76.8867 13.707 75.8145 14.2197 74.4785 14.2197C73.6289 14.2197 72.8584 14.0117 72.167 13.5957C71.4756 13.1738 70.9336 12.5967 70.541 11.8643C70.1543 11.1318 69.9609 10.3145 69.9609 9.41211C69.9609 8.50977 70.1543 7.69238 70.541 6.95996C70.9336 6.22754 71.4756 5.65332 72.167 5.2373C72.8584 4.81543 73.6289 4.60449 74.4785 4.60449C75.8203 4.60449 76.8926 5.11426 77.6953 6.13379V4.82422ZM74.874 12.2686C75.6826 12.2686 76.3535 11.9961 76.8867 11.4512C77.4258 10.9004 77.6953 10.2207 77.6953 9.41211C77.6953 8.59766 77.4258 7.91797 76.8867 7.37305C76.3535 6.82227 75.6826 6.54688 74.874 6.54688C74.0596 6.54688 73.3799 6.82227 72.835 7.37305C72.2959 7.91797 72.0264 8.59766 72.0264 9.41211C72.0264 10.2207 72.2959 10.9004 72.835 11.4512C73.3799 11.9961 74.0596 12.2686 74.874 12.2686ZM87.2314 4.60449C88.3213 4.60449 89.1973 4.93555 89.8594 5.59766C90.5273 6.25977 90.8613 7.13574 90.8613 8.22559V14H88.8486V8.88477C88.8486 8.18164 88.6406 7.61621 88.2246 7.18848C87.8086 6.76074 87.2549 6.54688 86.5635 6.54688C85.8369 6.54688 85.251 6.76367 84.8057 7.19727C84.3604 7.63086 84.1377 8.20508 84.1377 8.91992V14H82.1162V4.82422H84.1377V6.01074C84.8936 5.07324 85.9248 4.60449 87.2314 4.60449ZM99.0088 14L96.0908 10.6162L95.124 11.6621V14H93.1025V1.03613H95.124V8.96387L98.9209 4.82422H101.549L97.5146 9.10449L101.672 14H99.0088Z" fill="white"/>
</svg>
