<svg width="24" height="24" viewBox="0 0 24 24" fill="none" xmlns="http://www.w3.org/2000/svg">
<path fill-rule="evenodd" clip-rule="evenodd" d="M12 1C5.92343 1 1 5.927 1 11.998C1 17.769 5.45222 22.5058 11.1077 22.9603V23H12C18.0766 23 23 18.073 23 12.002C23 5.93144 18.077 1 12 1ZM14.4306 20.8919C13.7405 21.0801 13.0182 21.1901 12.2736 21.2118H12C10.7584 21.2118 9.57393 20.9659 8.49261 20.5201C9.53957 16.7478 12.3777 14.0458 15.6263 12.8384C16.1869 15.5553 15.7799 18.4668 14.4306 20.8919ZM15.1316 11.12C11.424 12.4554 8.18587 15.4635 6.88479 19.6617C4.4131 18.0086 2.78452 15.1922 2.78452 11.998C2.78452 10.8653 2.98911 9.78012 3.3634 8.77748C4.47904 9.33336 5.67199 9.72657 6.89878 9.94523C8.46154 10.2318 10.0627 10.2222 11.6209 9.94128C12.5079 9.78115 13.3737 9.5261 14.204 9.18623C14.5736 9.80057 14.8844 10.4479 15.1316 11.12ZM17.3463 12.3473C17.8821 14.8203 17.7196 17.4411 16.8645 19.8287C19.4014 18.2489 21.1141 15.4706 21.2111 12.2878C19.95 12.0591 18.6355 12.087 17.3463 12.3473ZM21.0871 10.4611C19.6905 10.2649 18.2544 10.3287 16.8514 10.6283C16.5751 9.8532 16.2264 9.10647 15.8109 8.39742C16.9635 7.73172 18.0161 6.89387 18.9209 5.91691C20.0275 7.17517 20.7968 8.73726 21.0871 10.4611ZM7.21407 8.18908C6.14833 7.99935 5.11317 7.6573 4.14716 7.17452C4.97798 5.82544 6.14683 4.70644 7.53581 3.93582L7.54651 3.93919L7.54691 3.93931L7.54696 3.93933L7.54698 3.93934C7.6983 3.98696 7.84276 4.03242 7.98187 4.08235C8.03319 4.10195 8.08344 4.121 8.13257 4.13962L8.13334 4.13992L8.13338 4.13993L8.1334 4.13994C8.35898 4.22547 8.5604 4.30184 8.72866 4.37985L8.77668 4.40385L8.78813 4.40918C8.89438 4.45859 9.04749 4.53157 9.18547 4.59737C9.25879 4.63236 9.32789 4.66529 9.3834 4.69155L9.38547 4.69269C9.43187 4.71761 9.47085 4.73854 9.50719 4.7602C9.53675 4.77938 9.56315 4.79492 9.57731 4.8032C9.6032 4.81836 9.6298 4.83335 9.65173 4.84555C9.67047 4.85597 9.68886 4.86611 9.70264 4.87367L9.70959 4.87749L9.72426 4.8856L9.72612 4.88667C9.74657 4.89846 9.77139 4.91262 9.79968 4.92877C9.86036 4.96339 9.93705 5.00715 10.0213 5.05644C10.0806 5.09123 10.1362 5.1244 10.1815 5.15249C10.2152 5.17341 10.2335 5.18555 10.2404 5.19016L10.2409 5.19044C10.2437 5.19234 10.2444 5.19278 10.2432 5.1919L10.2823 5.22155L10.3258 5.24736C10.3921 5.28669 10.4574 5.33188 10.5389 5.38827L10.5389 5.38828L10.5389 5.3883L10.5393 5.38854C10.5765 5.41429 10.6171 5.44237 10.6626 5.47331L10.6936 5.49431L10.7199 5.50916C10.7199 5.50921 10.7211 5.51004 10.7238 5.51181C10.7308 5.51658 10.748 5.52816 10.778 5.54962C10.8241 5.58262 10.8797 5.62404 10.941 5.67011L11.0135 5.72476C11.0508 5.75291 11.0886 5.78145 11.1208 5.80551C11.1633 5.83731 11.2153 5.87591 11.2622 5.90843C11.9469 6.43211 12.5728 7.03008 13.1301 7.68918C12.5372 7.90611 11.9262 8.07311 11.304 8.18544C9.94777 8.42995 8.5625 8.43655 7.21874 8.18994L7.21641 8.1895L7.21407 8.18908ZM12 2.7842C14.1152 2.7842 16.0638 3.49761 17.6191 4.69653C16.8037 5.5787 15.8488 6.33001 14.8033 6.91796C14.0845 6.00433 13.2529 5.18176 12.3257 4.47547L12.3033 4.45842L12.28 4.44292L12.2737 4.43852C12.2688 4.43502 12.2622 4.4303 12.2537 4.42416C12.2366 4.41172 12.2154 4.39602 12.19 4.37697C12.1611 4.35538 12.1322 4.33354 12.1011 4.31009L12.101 4.31004L12.0946 4.30523C12.0694 4.2862 12.0428 4.26606 12.0135 4.24411C11.9504 4.1966 11.8811 4.14492 11.8174 4.09931C11.7729 4.06743 11.709 4.02233 11.6437 3.98257L11.6022 3.95391L11.602 3.95375L11.602 3.95374C11.517 3.89491 11.3896 3.80665 11.2737 3.73545C11.1654 3.65953 11.019 3.57302 10.9231 3.51687C10.8302 3.46249 10.7303 3.40543 10.6682 3.37L10.6677 3.36972L10.6207 3.34283C10.609 3.33603 10.5989 3.3304 10.5949 3.3282L10.5944 3.32789L10.5703 3.31456L10.5622 3.31007C10.5483 3.30245 10.5345 3.29482 10.52 3.2868C10.5035 3.27762 10.4902 3.27005 10.4805 3.26439L10.4738 3.2597L10.4501 3.24523C10.3644 3.19286 10.2751 3.14504 10.2266 3.11908L10.2256 3.11853L10.2087 3.10948L10.188 3.09832L10.1667 3.08827C10.1241 3.06817 10.0612 3.03819 9.98972 3.00412C10.6368 2.86014 11.3095 2.7842 12 2.7842Z" fill="#05F9FF"/>
</svg>
