<svg width="24" height="24" viewBox="0 0 24 24" fill="none" xmlns="http://www.w3.org/2000/svg">
<path d="M4 16C3.71667 16 3.47934 15.904 3.288 15.712C3.09667 15.52 3.00067 15.2827 3 15C2.99934 14.7173 3.09534 14.48 3.288 14.288C3.48067 14.096 3.718 14 4 14H10C10.2833 14 10.521 14.096 10.713 14.288C10.905 14.48 11.0007 14.7173 11 15C10.9993 15.2827 10.9033 15.5203 10.712 15.713C10.5207 15.9057 10.2833 16.0013 10 16H4ZM4 12C3.71667 12 3.47934 11.904 3.288 11.712C3.09667 11.52 3.00067 11.2827 3 11C2.99934 10.7173 3.09534 10.48 3.288 10.288C3.48067 10.096 3.718 10 4 10H14C14.2833 10 14.521 10.096 14.713 10.288C14.905 10.48 15.0007 10.7173 15 11C14.9993 11.2827 14.9033 11.5203 14.712 11.713C14.5207 11.9057 14.2833 12.0013 14 12H4ZM4 8C3.71667 8 3.47934 7.904 3.288 7.712C3.09667 7.52 3.00067 7.28267 3 7C2.99934 6.71733 3.09534 6.48 3.288 6.288C3.48067 6.096 3.718 6 4 6H14C14.2833 6 14.521 6.096 14.713 6.288C14.905 6.48 15.0007 6.71733 15 7C14.9993 7.28267 14.9033 7.52033 14.712 7.713C14.5207 7.90567 14.2833 8.00133 14 8H4ZM16.775 20.475C16.6917 20.525 16.6083 20.55 16.525 20.55C16.4417 20.55 16.3583 20.5333 16.275 20.5C16.1917 20.4667 16.125 20.4127 16.075 20.338C16.025 20.2633 16 20.1757 16 20.075V13.925C16 13.825 16.025 13.7377 16.075 13.663C16.125 13.5883 16.1917 13.534 16.275 13.5C16.3583 13.466 16.4417 13.4493 16.525 13.45C16.6083 13.4507 16.6917 13.4757 16.775 13.525L21.375 16.575C21.4583 16.625 21.5167 16.6877 21.55 16.763C21.5833 16.8383 21.6 16.9173 21.6 17C21.6 17.0827 21.5833 17.162 21.55 17.238C21.5167 17.314 21.4583 17.3763 21.375 17.425L16.775 20.475Z" fill="#676767"/>
</svg>
