<svg width="32" height="32" viewBox="0 0 32 32" fill="none" xmlns="http://www.w3.org/2000/svg">
<path d="M15.6038 12.2147C16.0439 12.5398 16.6667 12.2257 16.6667 11.6785V10.1789C16.6667 10.1 16.7351 10.0383 16.8134 10.0479C20.1116 10.4493 22.6667 13.2592 22.6667 16.6659C22.6667 20.3481 19.6817 23.3331 15.9995 23.3331C12.542 23.3331 9.69927 20.7014 9.36509 17.3319C9.32875 16.9655 9.03371 16.6661 8.66548 16.6662L6.66655 16.6665C6.29841 16.6666 5.99769 16.966 6.02187 17.3333C6.36494 22.5453 10.7012 26.6666 16 26.6666C21.5228 26.6666 26 22.1895 26 16.6666C26 11.4102 21.9444 7.10106 16.7916 6.69751C16.7216 6.69203 16.6667 6.6339 16.6667 6.56366V4.98818C16.6667 4.441 16.0439 4.12683 15.6038 4.45201L11.0765 7.79732C10.7159 8.06381 10.7159 8.6032 11.0766 8.86968L15.6038 12.2147Z" fill="#F5F5F5"/>
</svg>
