<svg width="24" height="24" viewBox="0 0 24 24" fill="none" xmlns="http://www.w3.org/2000/svg">
<path d="M11.4188 3.12946C12.0806 2.6567 13 3.12982 13 3.94319V20.0568C13 20.8702 12.0806 21.3433 11.4188 20.8705L6 17H3C1.89543 17 1 16.1046 1 15V9C1 7.89543 1.89543 7 3 7H6L11.4188 3.12946Z" fill="white"/>
<path d="M15.9942 16.9054C17.235 15.6423 18.0004 13.9106 18.0004 12.0001C18.0004 10.0816 17.2286 8.34329 15.9785 7.07886" stroke="white" stroke-width="2" stroke-linecap="round" stroke-linejoin="round"/>
<path d="M18.7783 4.22192C20.7689 6.21253 22.0001 8.96253 22.0001 12.0001C22.0001 15.0377 20.7689 17.7877 18.7783 19.7783" stroke="white" stroke-width="2" stroke-linecap="round" stroke-linejoin="round"/>
</svg>
