<svg width="35" height="12" viewBox="0 0 35 12" fill="none" xmlns="http://www.w3.org/2000/svg">
<path d="M1 5.25C0.585786 5.25 0.25 5.58579 0.25 6C0.25 6.41421 0.585786 6.75 1 6.75V5.25ZM34.5303 6.53033C34.8232 6.23744 34.8232 5.76256 34.5303 5.46967L29.7574 0.696699C29.4645 0.403806 28.9896 0.403806 28.6967 0.696699C28.4038 0.989593 28.4038 1.46447 28.6967 1.75736L32.9393 6L28.6967 10.2426C28.4038 10.5355 28.4038 11.0104 28.6967 11.3033C28.9896 11.5962 29.4645 11.5962 29.7574 11.3033L34.5303 6.53033ZM1 6.75H34V5.25H1V6.75Z" fill="white"/>
</svg>
