<svg width="256" height="38" viewBox="0 0 256 38" fill="none" xmlns="http://www.w3.org/2000/svg">
    <mask id="mask0_27_481" style="mask-type:alpha" maskUnits="userSpaceOnUse" x="0" y="0" width="256" height="38">
        <ellipse cx="18.6903" cy="18.9999" rx="2.83186" ry="2.87879" fill="#1E222A" />
        <ellipse cx="26.6195" cy="18.9999" rx="2.83186" ry="2.87879" fill="#1E222A" />
        <ellipse cx="10.7611" cy="10.9393" rx="2.83186" ry="2.87879" fill="#1E222A" />
        <ellipse cx="18.6903" cy="10.9393" rx="2.83186" ry="2.87879" fill="#1E222A" />
        <ellipse cx="10.7611" cy="27.0607" rx="2.83186" ry="2.87879" fill="#1E222A" />
        <ellipse cx="18.6903" cy="27.0607" rx="2.83186" ry="2.87879" fill="#1E222A" />
        <ellipse cx="2.83186" cy="35.1212" rx="2.83186" ry="2.87879" fill="#1E222A" />
        <ellipse cx="10.7611" cy="35.1212" rx="2.83186" ry="2.87879" fill="#1E222A" />
        <ellipse cx="2.83186" cy="2.87879" rx="2.83186" ry="2.87879" fill="#1E222A" />
        <ellipse cx="10.7611" cy="2.87879" rx="2.83186" ry="2.87879" fill="#1E222A" />
        <ellipse cx="75.3275" cy="18.9999" rx="2.83186" ry="2.87879" fill="#1E222A" />
        <ellipse cx="83.2567" cy="18.9999" rx="2.83186" ry="2.87879" fill="#1E222A" />
        <ellipse cx="67.3983" cy="10.9393" rx="2.83186" ry="2.87879" fill="#1E222A" />
        <ellipse cx="75.3275" cy="10.9393" rx="2.83186" ry="2.87879" fill="#1E222A" />
        <ellipse cx="67.3983" cy="27.0607" rx="2.83186" ry="2.87879" fill="#1E222A" />
        <ellipse cx="75.3275" cy="27.0607" rx="2.83186" ry="2.87879" fill="#1E222A" />
        <ellipse cx="59.4691" cy="35.1212" rx="2.83186" ry="2.87879" fill="#1E222A" />
        <ellipse cx="67.3983" cy="35.1212" rx="2.83186" ry="2.87879" fill="#1E222A" />
        <ellipse cx="59.4691" cy="2.87879" rx="2.83186" ry="2.87879" fill="#1E222A" />
        <ellipse cx="67.3983" cy="2.87879" rx="2.83186" ry="2.87879" fill="#1E222A" />
        <ellipse cx="131.965" cy="18.9999" rx="2.83186" ry="2.87879" fill="#1E222A" />
        <ellipse cx="139.894" cy="18.9999" rx="2.83186" ry="2.87879" fill="#1E222A" />
        <ellipse cx="124.035" cy="10.9393" rx="2.83186" ry="2.87879" fill="#1E222A" />
        <ellipse cx="131.965" cy="10.9393" rx="2.83186" ry="2.87879" fill="#1E222A" />
        <ellipse cx="124.035" cy="27.0607" rx="2.83186" ry="2.87879" fill="#1E222A" />
        <ellipse cx="131.965" cy="27.0607" rx="2.83186" ry="2.87879" fill="#1E222A" />
        <ellipse cx="116.106" cy="35.1212" rx="2.83186" ry="2.87879" fill="#1E222A" />
        <ellipse cx="124.035" cy="35.1212" rx="2.83186" ry="2.87879" fill="#1E222A" />
        <ellipse cx="116.106" cy="2.87879" rx="2.83186" ry="2.87879" fill="#1E222A" />
        <ellipse cx="124.035" cy="2.87879" rx="2.83186" ry="2.87879" fill="#1E222A" />
        <ellipse cx="188.602" cy="18.9999" rx="2.83186" ry="2.87879" fill="#1E222A" />
        <ellipse cx="196.531" cy="18.9999" rx="2.83186" ry="2.87879" fill="#1E222A" />
        <ellipse cx="180.673" cy="10.9393" rx="2.83186" ry="2.87879" fill="#1E222A" />
        <ellipse cx="188.602" cy="10.9393" rx="2.83186" ry="2.87879" fill="#1E222A" />
        <ellipse cx="180.673" cy="27.0607" rx="2.83186" ry="2.87879" fill="#1E222A" />
        <ellipse cx="188.602" cy="27.0607" rx="2.83186" ry="2.87879" fill="#1E222A" />
        <ellipse cx="172.743" cy="35.1212" rx="2.83186" ry="2.87879" fill="#1E222A" />
        <ellipse cx="180.673" cy="35.1212" rx="2.83186" ry="2.87879" fill="#1E222A" />
        <ellipse cx="172.743" cy="2.87879" rx="2.83186" ry="2.87879" fill="#1E222A" />
        <ellipse cx="180.673" cy="2.87879" rx="2.83186" ry="2.87879" fill="#1E222A" />
        <ellipse cx="245.239" cy="18.9999" rx="2.83186" ry="2.87879" fill="#1E222A" />
        <ellipse cx="253.168" cy="18.9999" rx="2.83186" ry="2.87879" fill="#1E222A" />
        <ellipse cx="237.309" cy="10.9393" rx="2.83186" ry="2.87879" fill="#1E222A" />
        <ellipse cx="245.239" cy="10.9393" rx="2.83186" ry="2.87879" fill="#1E222A" />
        <ellipse cx="237.309" cy="27.0607" rx="2.83186" ry="2.87879" fill="#1E222A" />
        <ellipse cx="245.239" cy="27.0607" rx="2.83186" ry="2.87879" fill="#1E222A" />
        <ellipse cx="229.38" cy="35.1212" rx="2.83186" ry="2.87879" fill="#1E222A" />
        <ellipse cx="237.31" cy="35.1212" rx="2.83186" ry="2.87879" fill="#1E222A" />
        <ellipse cx="229.38" cy="2.87879" rx="2.83186" ry="2.87879" fill="#1E222A" />
        <ellipse cx="237.31" cy="2.87879" rx="2.83186" ry="2.87879" fill="#1E222A" />
    </mask>
    <g mask="url(#mask0_27_481)">
        <rect x="-604.318" y="-13.2424" width="895.434" height="81.1818" fill="url(#paint0_linear_27_481)" />
    </g>
    <defs>
        <linearGradient id="paint0_linear_27_481" x1="291.115" y1="27.3485" x2="-604.318" y2="27.3485"
            gradientUnits="userSpaceOnUse">
            <stop stop-color="#21252E" />
            <stop offset="0.384" stop-color="#21252E" />
            <stop offset="0.537062" stop-color="white" />
            <stop offset="0.674" stop-color="#21252E" />
            <stop offset="1" stop-color="#21252E" />
        </linearGradient>
    </defs>
</svg>