<svg width="32" height="32" viewBox="0 0 32 32" fill="none" xmlns="http://www.w3.org/2000/svg">
<path d="M1.8335 15.9999H30.1668M1.8335 15.9999C1.8335 23.824 8.17613 30.1666 16.0002 30.1666M1.8335 15.9999C1.8335 8.17588 8.17613 1.83325 16.0002 1.83325M30.1668 15.9999C30.1668 23.824 23.8242 30.1666 16.0002 30.1666M30.1668 15.9999C30.1668 8.17588 23.8242 1.83325 16.0002 1.83325M16.0002 1.83325C19.5436 5.71258 21.5574 10.747 21.6668 15.9999C21.5574 21.2529 19.5436 26.2873 16.0002 30.1666M16.0002 1.83325C12.4567 5.71258 10.4429 10.747 10.3335 15.9999C10.4429 21.2529 12.4567 26.2873 16.0002 30.1666" stroke="#05F9FF" stroke-width="2.4" stroke-linecap="round" stroke-linejoin="round"/>
</svg>
