<svg width="34" height="34" viewBox="0 0 34 34" fill="none" xmlns="http://www.w3.org/2000/svg">
<path d="M2.8335 9.91675L14.4005 18.0136C15.3371 18.6693 15.8055 18.9971 16.3149 19.1241C16.7648 19.2363 17.2355 19.2363 17.6855 19.1241C18.1949 18.9971 18.6632 18.6693 19.5999 18.0136L31.1668 9.91675M9.6335 28.3334H24.3668C26.7471 28.3334 27.9372 28.3334 28.8463 27.8702C29.646 27.4627 30.2961 26.8126 30.7036 26.0129C31.1668 25.1038 31.1668 23.9136 31.1668 21.5334V12.4667C31.1668 10.0865 31.1668 8.89641 30.7036 7.98729C30.2961 7.1876 29.646 6.53743 28.8463 6.12997C27.9372 5.66675 26.7471 5.66675 24.3668 5.66675H9.6335C7.25327 5.66675 6.06316 5.66675 5.15404 6.12997C4.35435 6.53743 3.70418 7.1876 3.29672 7.98729C2.8335 8.89641 2.8335 10.0865 2.8335 12.4667V21.5334C2.8335 23.9136 2.8335 25.1038 3.29672 26.0129C3.70418 26.8126 4.35435 27.4627 5.15404 27.8702C6.06316 28.3334 7.25327 28.3334 9.6335 28.3334Z" stroke="#05F9FF" stroke-width="2.4" stroke-linecap="round" stroke-linejoin="round"/>
</svg>
